<svg width="1920" height="1080" viewBox="0 0 1920 1080" fill="none" xmlns="http://www.w3.org/2000/svg">
<g clip-path="url(#clip0_28_14859)" filter="url(#filter0_i_28_14859)">
<rect width="1920" height="1080" fill="#A49393"/>
<rect width="1920" height="1080" fill="black"/>
<g clip-path="url(#clip1_28_14859)">
<g clip-path="url(#clip2_28_14859)">
<rect x="-40" y="-60" width="100" height="100" stroke="#292929"/>
<rect x="60" y="-60" width="100" height="100" stroke="#292929"/>
<rect x="160" y="-60" width="100" height="100" stroke="#292929"/>
<rect x="260" y="-60" width="100" height="100" stroke="#292929"/>
<rect x="360" y="-60" width="100" height="100" stroke="#292929"/>
<rect x="460" y="-60" width="100" height="100" stroke="#292929"/>
<rect x="560" y="-60" width="100" height="100" stroke="#292929"/>
<rect x="660" y="-60" width="100" height="100" stroke="#292929"/>
<rect x="760" y="-60" width="100" height="100" stroke="#292929"/>
<rect x="860" y="-60" width="100" height="100" stroke="#292929"/>
<rect x="960" y="-60" width="100" height="100" stroke="#292929"/>
<rect x="1060" y="-60" width="100" height="100" stroke="#292929"/>
<rect x="1160" y="-60" width="100" height="100" stroke="#292929"/>
<rect x="1260" y="-60" width="100" height="100" stroke="#292929"/>
<rect x="1360" y="-60" width="100" height="100" stroke="#292929"/>
<rect x="1460" y="-60" width="100" height="100" stroke="#292929"/>
<rect x="1560" y="-60" width="100" height="100" stroke="#292929"/>
<rect x="1660" y="-60" width="100" height="100" stroke="#292929"/>
<rect x="1760" y="-60" width="100" height="100" stroke="#292929"/>
<rect x="1860" y="-60" width="100" height="100" stroke="#292929"/>
</g>
<g clip-path="url(#clip3_28_14859)">
<rect x="-40" y="40" width="100" height="100" stroke="#292929"/>
<rect x="60" y="40" width="100" height="100" stroke="#292929"/>
<rect x="160" y="40" width="100" height="100" stroke="#292929"/>
<rect x="260" y="40" width="100" height="100" stroke="#292929"/>
<rect x="360" y="40" width="100" height="100" stroke="#292929"/>
<rect x="460" y="40" width="100" height="100" stroke="#292929"/>
<rect x="560" y="40" width="100" height="100" stroke="#292929"/>
<rect x="660" y="40" width="100" height="100" stroke="#292929"/>
<rect x="760" y="40" width="100" height="100" stroke="#292929"/>
<rect x="860" y="40" width="100" height="100" stroke="#292929"/>
<rect x="960" y="40" width="100" height="100" stroke="#292929"/>
<rect x="1060" y="40" width="100" height="100" stroke="#292929"/>
<rect x="1160" y="40" width="100" height="100" stroke="#292929"/>
<rect x="1260" y="40" width="100" height="100" stroke="#292929"/>
<rect x="1360" y="40" width="100" height="100" stroke="#292929"/>
<rect x="1460" y="40" width="100" height="100" stroke="#292929"/>
<rect x="1560" y="40" width="100" height="100" stroke="#292929"/>
<rect x="1660" y="40" width="100" height="100" stroke="#292929"/>
<rect x="1760" y="40" width="100" height="100" stroke="#292929"/>
<rect x="1860" y="40" width="100" height="100" stroke="#292929"/>
</g>
<g clip-path="url(#clip4_28_14859)">
<rect x="-40" y="140" width="100" height="100" stroke="#292929"/>
<rect x="60" y="140" width="100" height="100" stroke="#292929"/>
<rect x="160" y="140" width="100" height="100" stroke="#292929"/>
<rect x="260" y="140" width="100" height="100" stroke="#292929"/>
<rect x="360" y="140" width="100" height="100" stroke="#292929"/>
<rect x="460" y="140" width="100" height="100" stroke="#292929"/>
<rect x="560" y="140" width="100" height="100" stroke="#292929"/>
<rect x="660" y="140" width="100" height="100" stroke="#292929"/>
<rect x="760" y="140" width="100" height="100" stroke="#292929"/>
<rect x="860" y="140" width="100" height="100" stroke="#292929"/>
<rect x="960" y="140" width="100" height="100" stroke="#292929"/>
<rect x="1060" y="140" width="100" height="100" stroke="#292929"/>
<rect x="1160" y="140" width="100" height="100" stroke="#292929"/>
<rect x="1260" y="140" width="100" height="100" stroke="#292929"/>
<rect x="1360" y="140" width="100" height="100" stroke="#292929"/>
<rect x="1460" y="140" width="100" height="100" stroke="#292929"/>
<rect x="1560" y="140" width="100" height="100" stroke="#292929"/>
<rect x="1660" y="140" width="100" height="100" stroke="#292929"/>
<rect x="1760" y="140" width="100" height="100" stroke="#292929"/>
<rect x="1860" y="140" width="100" height="100" stroke="#292929"/>
</g>
<g clip-path="url(#clip5_28_14859)">
<rect x="-40" y="240" width="100" height="100" stroke="#292929"/>
<rect x="60" y="240" width="100" height="100" stroke="#292929"/>
<rect x="160" y="240" width="100" height="100" stroke="#292929"/>
<rect x="260" y="240" width="100" height="100" stroke="#292929"/>
<rect x="360" y="240" width="100" height="100" stroke="#292929"/>
<rect x="460" y="240" width="100" height="100" stroke="#292929"/>
<rect x="560" y="240" width="100" height="100" stroke="#292929"/>
<rect x="660" y="240" width="100" height="100" stroke="#292929"/>
<rect x="760" y="240" width="100" height="100" stroke="#292929"/>
<rect x="860" y="240" width="100" height="100" stroke="#292929"/>
<rect x="960" y="240" width="100" height="100" stroke="#292929"/>
<rect x="1060" y="240" width="100" height="100" stroke="#292929"/>
<rect x="1160" y="240" width="100" height="100" stroke="#292929"/>
<rect x="1260" y="240" width="100" height="100" stroke="#292929"/>
<rect x="1360" y="240" width="100" height="100" stroke="#292929"/>
<rect x="1460" y="240" width="100" height="100" stroke="#292929"/>
<rect x="1560" y="240" width="100" height="100" stroke="#292929"/>
<rect x="1660" y="240" width="100" height="100" stroke="#292929"/>
<rect x="1760" y="240" width="100" height="100" stroke="#292929"/>
<rect x="1860" y="240" width="100" height="100" stroke="#292929"/>
</g>
<g clip-path="url(#clip6_28_14859)">
<rect x="-40" y="340" width="100" height="100" stroke="#292929"/>
<rect x="60" y="340" width="100" height="100" stroke="#292929"/>
<rect x="160" y="340" width="100" height="100" stroke="#292929"/>
<rect x="260" y="340" width="100" height="100" stroke="#292929"/>
<rect x="360" y="340" width="100" height="100" stroke="#292929"/>
<rect x="460" y="340" width="100" height="100" stroke="#292929"/>
<rect x="560" y="340" width="100" height="100" stroke="#292929"/>
<rect x="660" y="340" width="100" height="100" stroke="#292929"/>
<rect x="760" y="340" width="100" height="100" stroke="#292929"/>
<rect x="860" y="340" width="100" height="100" stroke="#292929"/>
<rect x="960" y="340" width="100" height="100" stroke="#292929"/>
<rect x="1060" y="340" width="100" height="100" stroke="#292929"/>
<rect x="1160" y="340" width="100" height="100" stroke="#292929"/>
<rect x="1260" y="340" width="100" height="100" stroke="#292929"/>
<rect x="1360" y="340" width="100" height="100" stroke="#292929"/>
<rect x="1460" y="340" width="100" height="100" stroke="#292929"/>
<rect x="1560" y="340" width="100" height="100" stroke="#292929"/>
<rect x="1660" y="340" width="100" height="100" stroke="#292929"/>
<rect x="1760" y="340" width="100" height="100" stroke="#292929"/>
<rect x="1860" y="340" width="100" height="100" stroke="#292929"/>
</g>
<g clip-path="url(#clip7_28_14859)">
<rect x="-40" y="440" width="100" height="100" stroke="#292929"/>
<rect x="60" y="440" width="100" height="100" stroke="#292929"/>
<rect x="160" y="440" width="100" height="100" stroke="#292929"/>
<rect x="260" y="440" width="100" height="100" stroke="#292929"/>
<rect x="360" y="440" width="100" height="100" stroke="#292929"/>
<rect x="460" y="440" width="100" height="100" stroke="#292929"/>
<rect x="560" y="440" width="100" height="100" stroke="#292929"/>
<rect x="660" y="440" width="100" height="100" stroke="#292929"/>
<rect x="760" y="440" width="100" height="100" stroke="#292929"/>
<rect x="860" y="440" width="100" height="100" stroke="#292929"/>
<rect x="960" y="440" width="100" height="100" stroke="#292929"/>
<rect x="1060" y="440" width="100" height="100" stroke="#292929"/>
<rect x="1160" y="440" width="100" height="100" stroke="#292929"/>
<rect x="1260" y="440" width="100" height="100" stroke="#292929"/>
<rect x="1360" y="440" width="100" height="100" stroke="#292929"/>
<rect x="1460" y="440" width="100" height="100" stroke="#292929"/>
<rect x="1560" y="440" width="100" height="100" stroke="#292929"/>
<rect x="1660" y="440" width="100" height="100" stroke="#292929"/>
<rect x="1760" y="440" width="100" height="100" stroke="#292929"/>
<rect x="1860" y="440" width="100" height="100" stroke="#292929"/>
</g>
<g clip-path="url(#clip8_28_14859)">
<rect x="-40" y="540" width="100" height="100" stroke="#292929"/>
<rect x="60" y="540" width="100" height="100" stroke="#292929"/>
<rect x="160" y="540" width="100" height="100" stroke="#292929"/>
<rect x="260" y="540" width="100" height="100" stroke="#292929"/>
<rect x="360" y="540" width="100" height="100" stroke="#292929"/>
<rect x="460" y="540" width="100" height="100" stroke="#292929"/>
<rect x="560" y="540" width="100" height="100" stroke="#292929"/>
<rect x="660" y="540" width="100" height="100" stroke="#292929"/>
<rect x="760" y="540" width="100" height="100" stroke="#292929"/>
<rect x="860" y="540" width="100" height="100" stroke="#292929"/>
<rect x="960" y="540" width="100" height="100" stroke="#292929"/>
<rect x="1060" y="540" width="100" height="100" stroke="#292929"/>
<rect x="1160" y="540" width="100" height="100" stroke="#292929"/>
<rect x="1260" y="540" width="100" height="100" stroke="#292929"/>
<rect x="1360" y="540" width="100" height="100" stroke="#292929"/>
<rect x="1460" y="540" width="100" height="100" stroke="#292929"/>
<rect x="1560" y="540" width="100" height="100" stroke="#292929"/>
<rect x="1660" y="540" width="100" height="100" stroke="#292929"/>
<rect x="1760" y="540" width="100" height="100" stroke="#292929"/>
<rect x="1860" y="540" width="100" height="100" stroke="#292929"/>
</g>
<g clip-path="url(#clip9_28_14859)">
<rect x="-40" y="640" width="100" height="100" stroke="#292929"/>
<rect x="60" y="640" width="100" height="100" stroke="#292929"/>
<rect x="160" y="640" width="100" height="100" stroke="#292929"/>
<rect x="260" y="640" width="100" height="100" stroke="#292929"/>
<rect x="360" y="640" width="100" height="100" stroke="#292929"/>
<rect x="460" y="640" width="100" height="100" stroke="#292929"/>
<rect x="560" y="640" width="100" height="100" stroke="#292929"/>
<rect x="660" y="640" width="100" height="100" stroke="#292929"/>
<rect x="760" y="640" width="100" height="100" stroke="#292929"/>
<rect x="860" y="640" width="100" height="100" stroke="#292929"/>
<rect x="960" y="640" width="100" height="100" stroke="#292929"/>
<rect x="1060" y="640" width="100" height="100" stroke="#292929"/>
<rect x="1160" y="640" width="100" height="100" stroke="#292929"/>
<rect x="1260" y="640" width="100" height="100" stroke="#292929"/>
<rect x="1360" y="640" width="100" height="100" stroke="#292929"/>
<rect x="1460" y="640" width="100" height="100" stroke="#292929"/>
<rect x="1560" y="640" width="100" height="100" stroke="#292929"/>
<rect x="1660" y="640" width="100" height="100" stroke="#292929"/>
<rect x="1760" y="640" width="100" height="100" stroke="#292929"/>
<rect x="1860" y="640" width="100" height="100" stroke="#292929"/>
</g>
<g clip-path="url(#clip10_28_14859)">
<rect x="-40" y="740" width="100" height="100" stroke="#292929"/>
<rect x="60" y="740" width="100" height="100" stroke="#292929"/>
<rect x="160" y="740" width="100" height="100" stroke="#292929"/>
<rect x="260" y="740" width="100" height="100" stroke="#292929"/>
<rect x="360" y="740" width="100" height="100" stroke="#292929"/>
<rect x="460" y="740" width="100" height="100" stroke="#292929"/>
<rect x="560" y="740" width="100" height="100" stroke="#292929"/>
<rect x="660" y="740" width="100" height="100" stroke="#292929"/>
<rect x="760" y="740" width="100" height="100" stroke="#292929"/>
<rect x="860" y="740" width="100" height="100" stroke="#292929"/>
<rect x="960" y="740" width="100" height="100" stroke="#292929"/>
<rect x="1060" y="740" width="100" height="100" stroke="#292929"/>
<rect x="1160" y="740" width="100" height="100" stroke="#292929"/>
<rect x="1260" y="740" width="100" height="100" stroke="#292929"/>
<rect x="1360" y="740" width="100" height="100" stroke="#292929"/>
<rect x="1460" y="740" width="100" height="100" stroke="#292929"/>
<rect x="1560" y="740" width="100" height="100" stroke="#292929"/>
<rect x="1660" y="740" width="100" height="100" stroke="#292929"/>
<rect x="1760" y="740" width="100" height="100" stroke="#292929"/>
<rect x="1860" y="740" width="100" height="100" stroke="#292929"/>
</g>
<g clip-path="url(#clip11_28_14859)">
<rect x="-40" y="840" width="100" height="100" stroke="#292929"/>
<rect x="60" y="840" width="100" height="100" stroke="#292929"/>
<rect x="160" y="840" width="100" height="100" stroke="#292929"/>
<rect x="260" y="840" width="100" height="100" stroke="#292929"/>
<rect x="360" y="840" width="100" height="100" stroke="#292929"/>
<rect x="460" y="840" width="100" height="100" stroke="#292929"/>
<rect x="560" y="840" width="100" height="100" stroke="#292929"/>
<rect x="660" y="840" width="100" height="100" stroke="#292929"/>
<rect x="760" y="840" width="100" height="100" stroke="#292929"/>
<rect x="860" y="840" width="100" height="100" stroke="#292929"/>
<rect x="960" y="840" width="100" height="100" stroke="#292929"/>
<rect x="1060" y="840" width="100" height="100" stroke="#292929"/>
<rect x="1160" y="840" width="100" height="100" stroke="#292929"/>
<rect x="1260" y="840" width="100" height="100" stroke="#292929"/>
<rect x="1360" y="840" width="100" height="100" stroke="#292929"/>
<rect x="1460" y="840" width="100" height="100" stroke="#292929"/>
<rect x="1560" y="840" width="100" height="100" stroke="#292929"/>
<rect x="1660" y="840" width="100" height="100" stroke="#292929"/>
<rect x="1760" y="840" width="100" height="100" stroke="#292929"/>
<rect x="1860" y="840" width="100" height="100" stroke="#292929"/>
</g>
<g clip-path="url(#clip12_28_14859)">
<rect x="-40" y="940" width="100" height="100" stroke="#292929"/>
<rect x="60" y="940" width="100" height="100" stroke="#292929"/>
<rect x="160" y="940" width="100" height="100" stroke="#292929"/>
<rect x="260" y="940" width="100" height="100" stroke="#292929"/>
<rect x="360" y="940" width="100" height="100" stroke="#292929"/>
<rect x="460" y="940" width="100" height="100" stroke="#292929"/>
<rect x="560" y="940" width="100" height="100" stroke="#292929"/>
<rect x="660" y="940" width="100" height="100" stroke="#292929"/>
<rect x="760" y="940" width="100" height="100" stroke="#292929"/>
<rect x="860" y="940" width="100" height="100" stroke="#292929"/>
<rect x="960" y="940" width="100" height="100" stroke="#292929"/>
<rect x="1060" y="940" width="100" height="100" stroke="#292929"/>
<rect x="1160" y="940" width="100" height="100" stroke="#292929"/>
<rect x="1260" y="940" width="100" height="100" stroke="#292929"/>
<rect x="1360" y="940" width="100" height="100" stroke="#292929"/>
<rect x="1460" y="940" width="100" height="100" stroke="#292929"/>
<rect x="1560" y="940" width="100" height="100" stroke="#292929"/>
<rect x="1660" y="940" width="100" height="100" stroke="#292929"/>
<rect x="1760" y="940" width="100" height="100" stroke="#292929"/>
<rect x="1860" y="940" width="100" height="100" stroke="#292929"/>
</g>
<g clip-path="url(#clip13_28_14859)">
<rect x="-40" y="1040" width="100" height="100" stroke="#292929"/>
<rect x="60" y="1040" width="100" height="100" stroke="#292929"/>
<rect x="160" y="1040" width="100" height="100" stroke="#292929"/>
<rect x="260" y="1040" width="100" height="100" stroke="#292929"/>
<rect x="360" y="1040" width="100" height="100" stroke="#292929"/>
<rect x="460" y="1040" width="100" height="100" stroke="#292929"/>
<rect x="560" y="1040" width="100" height="100" stroke="#292929"/>
<rect x="660" y="1040" width="100" height="100" stroke="#292929"/>
<rect x="760" y="1040" width="100" height="100" stroke="#292929"/>
<rect x="860" y="1040" width="100" height="100" stroke="#292929"/>
<rect x="960" y="1040" width="100" height="100" stroke="#292929"/>
<rect x="1060" y="1040" width="100" height="100" stroke="#292929"/>
<rect x="1160" y="1040" width="100" height="100" stroke="#292929"/>
<rect x="1260" y="1040" width="100" height="100" stroke="#292929"/>
<rect x="1360" y="1040" width="100" height="100" stroke="#292929"/>
<rect x="1460" y="1040" width="100" height="100" stroke="#292929"/>
<rect x="1560" y="1040" width="100" height="100" stroke="#292929"/>
<rect x="1660" y="1040" width="100" height="100" stroke="#292929"/>
<rect x="1760" y="1040" width="100" height="100" stroke="#292929"/>
<rect x="1860" y="1040" width="100" height="100" stroke="#292929"/>
</g>
</g>
</g>
<path d="M717.329 609H689.317L752.524 485.364H786.21L808.305 609H780.294L765.262 513.616H764.296L717.329 609ZM723.728 560.403H789.893L786.391 580.808H720.227L723.728 560.403ZM867.377 485.364L885.246 527.501H886.212L918.328 485.364H948.694L900.821 547.182L929.014 609H899.493L881.141 566.802H880.175L847.817 609H817.331L866.411 547.182L838.581 485.364H867.377ZM1062.54 548.872C1060.28 562.073 1055.92 573.281 1049.44 582.498C1043 591.714 1035.13 598.717 1025.83 603.506C1016.57 608.296 1006.59 610.69 995.888 610.69C984.659 610.69 974.98 608.135 966.85 603.023C958.761 597.912 952.905 590.527 949.283 580.868C945.661 571.169 944.977 559.477 947.23 545.793C949.404 532.552 953.73 521.324 960.21 512.107C966.689 502.851 974.598 495.808 983.935 490.978C993.272 486.108 1003.31 483.673 1014.06 483.673C1025.21 483.673 1034.83 486.249 1042.92 491.401C1051.05 496.552 1056.9 503.998 1060.48 513.737C1064.11 523.437 1064.79 535.148 1062.54 548.872ZM1036.52 545.793C1037.93 537.301 1037.86 530.178 1036.34 524.423C1034.85 518.627 1032.11 514.24 1028.13 511.262C1024.14 508.284 1019.11 506.795 1013.03 506.795C1006.43 506.795 1000.38 508.445 994.862 511.745C989.388 515.045 984.76 519.835 980.977 526.113C977.234 532.351 974.638 539.937 973.189 548.872C971.74 557.404 971.78 564.528 973.31 570.243C974.879 575.958 977.677 580.284 981.701 583.222C985.766 586.12 990.817 587.569 996.854 587.569C1003.41 587.569 1009.41 585.959 1014.84 582.739C1020.32 579.479 1024.93 574.75 1028.67 568.553C1032.41 562.314 1035.03 554.728 1036.52 545.793ZM1195.82 485.364L1175.29 609H1152.71L1111.96 531.184H1111L1098.02 609H1071.88L1092.4 485.364H1115.34L1155.91 563.119H1156.94L1169.8 485.364H1195.82Z" fill="white"/>
<rect x="621" y="415" width="678" height="250" rx="125" fill="url(#paint0_linear_28_14859)"/>
<defs>
<filter id="filter0_i_28_14859" x="0" y="0" width="1920" height="1080" filterUnits="userSpaceOnUse" color-interpolation-filters="sRGB">
<feFlood flood-opacity="0" result="BackgroundImageFix"/>
<feBlend mode="normal" in="SourceGraphic" in2="BackgroundImageFix" result="shape"/>
<feColorMatrix in="SourceAlpha" type="matrix" values="0 0 0 0 0 0 0 0 0 0 0 0 0 0 0 0 0 0 127 0" result="hardAlpha"/>
<feMorphology radius="167" operator="erode" in="SourceAlpha" result="effect1_innerShadow_28_14859"/>
<feOffset/>
<feGaussianBlur stdDeviation="125"/>
<feComposite in2="hardAlpha" operator="arithmetic" k2="-1" k3="1"/>
<feColorMatrix type="matrix" values="0 0 0 0 0 0 0 0 0 0 0 0 0 0 0 0 0 0 1 0"/>
<feBlend mode="normal" in2="shape" result="effect1_innerShadow_28_14859"/>
</filter>
<linearGradient id="paint0_linear_28_14859" x1="960" y1="189.5" x2="960" y2="665" gradientUnits="userSpaceOnUse">
<stop stop-opacity="0"/>
<stop offset="1"/>
</linearGradient>
<clipPath id="clip0_28_14859">
<rect width="1920" height="1080" fill="white"/>
</clipPath>
<clipPath id="clip1_28_14859">
<rect width="3000" height="3000" fill="white" transform="translate(-540 -960)"/>
</clipPath>
<clipPath id="clip2_28_14859">
<rect width="3000" height="100" fill="white" transform="translate(-540 -60)"/>
</clipPath>
<clipPath id="clip3_28_14859">
<rect width="3000" height="100" fill="white" transform="translate(-540 40)"/>
</clipPath>
<clipPath id="clip4_28_14859">
<rect width="3000" height="100" fill="white" transform="translate(-540 140)"/>
</clipPath>
<clipPath id="clip5_28_14859">
<rect width="3000" height="100" fill="white" transform="translate(-540 240)"/>
</clipPath>
<clipPath id="clip6_28_14859">
<rect width="3000" height="100" fill="white" transform="translate(-540 340)"/>
</clipPath>
<clipPath id="clip7_28_14859">
<rect width="3000" height="100" fill="white" transform="translate(-540 440)"/>
</clipPath>
<clipPath id="clip8_28_14859">
<rect width="3000" height="100" fill="white" transform="translate(-540 540)"/>
</clipPath>
<clipPath id="clip9_28_14859">
<rect width="3000" height="100" fill="white" transform="translate(-540 640)"/>
</clipPath>
<clipPath id="clip10_28_14859">
<rect width="3000" height="100" fill="white" transform="translate(-540 740)"/>
</clipPath>
<clipPath id="clip11_28_14859">
<rect width="3000" height="100" fill="white" transform="translate(-540 840)"/>
</clipPath>
<clipPath id="clip12_28_14859">
<rect width="3000" height="100" fill="white" transform="translate(-540 940)"/>
</clipPath>
<clipPath id="clip13_28_14859">
<rect width="3000" height="100" fill="white" transform="translate(-540 1040)"/>
</clipPath>
</defs>
</svg>
