<svg width="1920" height="1080" viewBox="0 0 1920 1080" fill="none" xmlns="http://www.w3.org/2000/svg">
<rect width="1920" height="1080" fill="white"/>
<path d="M244.459 -804.459L172.751 -823.673L153.537 -751.965M244.459 -804.459L225.245 -732.751M244.459 -804.459L316.167 -785.245M225.245 -732.751L153.537 -751.965M225.245 -732.751L296.953 -713.537M225.245 -732.751L206.031 -661.043M153.537 -751.965L134.322 -680.257M316.167 -785.245L296.953 -713.537M316.167 -785.245L387.875 -766.031M296.953 -713.537L368.661 -694.323M296.953 -713.537L277.739 -641.829M387.875 -766.031L368.661 -694.323M387.875 -766.031L459.583 -746.816M368.661 -694.323L440.369 -675.108M368.661 -694.323L349.447 -622.614M459.583 -746.816L440.369 -675.108M459.583 -746.816L531.291 -727.602M440.369 -675.108L512.077 -655.894M440.369 -675.108L421.155 -603.4M531.291 -727.602L512.077 -655.894M531.291 -727.602L602.999 -708.388M512.077 -655.894L583.785 -636.68M512.077 -655.894L492.863 -584.186M602.999 -708.388L583.785 -636.68M602.999 -708.388L674.707 -689.174M583.785 -636.68L655.493 -617.466M583.785 -636.68L564.571 -564.972M674.707 -689.174L655.493 -617.466M674.707 -689.174L746.415 -669.96M655.493 -617.466L727.201 -598.252M655.493 -617.466L636.279 -545.758M746.415 -669.96L727.201 -598.252M746.415 -669.96L818.123 -650.746M727.201 -598.252L798.909 -579.038M727.201 -598.252L707.987 -526.544M818.123 -650.746L798.909 -579.038M818.123 -650.746L889.831 -631.532M798.909 -579.038L870.617 -559.824M798.909 -579.038L779.695 -507.33M889.831 -631.532L870.617 -559.824M889.831 -631.532L961.54 -612.318M870.617 -559.824L942.325 -540.61M870.617 -559.824L851.403 -488.116M961.54 -612.318L942.325 -540.61M961.54 -612.318L1033.25 -593.103M942.325 -540.61L1014.03 -521.395M942.325 -540.61L923.111 -468.901M1033.25 -593.103L1014.03 -521.395M1033.25 -593.103L1104.96 -573.889M1014.03 -521.395L1085.74 -502.181M1014.03 -521.395L994.819 -449.687M1104.96 -573.889L1085.74 -502.181M1104.96 -573.889L1176.66 -554.675M1085.74 -502.181L1157.45 -482.967M1085.74 -502.181L1066.53 -430.473M1176.66 -554.675L1157.45 -482.967M1176.66 -554.675L1248.37 -535.461M1157.45 -482.967L1229.16 -463.753M1157.45 -482.967L1138.24 -411.259M1248.37 -535.461L1229.16 -463.753M1248.37 -535.461L1320.08 -516.247M1229.16 -463.753L1300.87 -444.539M1229.16 -463.753L1209.94 -392.045M1320.08 -516.247L1300.87 -444.539M1320.08 -516.247L1391.79 -497.033M1300.87 -444.539L1372.57 -425.325M1300.87 -444.539L1281.65 -372.831M1391.79 -497.033L1372.57 -425.325M1391.79 -497.033L1463.5 -477.819M1372.57 -425.325L1444.28 -406.111M1372.57 -425.325L1353.36 -353.617M1463.5 -477.819L1444.28 -406.111M1463.5 -477.819L1535.2 -458.605M1444.28 -406.111L1515.99 -386.897M1444.28 -406.111L1425.07 -334.403M1535.2 -458.605L1515.99 -386.897M1535.2 -458.605L1606.91 -439.391M1515.99 -386.897L1587.7 -367.682M1515.99 -386.897L1496.78 -315.188M1606.91 -439.391L1587.7 -367.682M1606.91 -439.391L1678.62 -420.176M1587.7 -367.682L1659.41 -348.468M1587.7 -367.682L1568.48 -295.974M1678.62 -420.176L1659.41 -348.468M1678.62 -420.176L1750.33 -400.962M1659.41 -348.468L1731.11 -329.254M1659.41 -348.468L1640.19 -276.76M1750.33 -400.962L1731.11 -329.254M1750.33 -400.962L1822.04 -381.748M1731.11 -329.254L1802.82 -310.04M1731.11 -329.254L1711.9 -257.546M1822.04 -381.748L1802.82 -310.04M1822.04 -381.748L1893.74 -362.534M1802.82 -310.04L1874.53 -290.826M1802.82 -310.04L1783.61 -238.332M1893.74 -362.534L1874.53 -290.826M1893.74 -362.534L1965.45 -343.32M1874.53 -290.826L1946.24 -271.612M1874.53 -290.826L1855.32 -219.118M1965.45 -343.32L1946.24 -271.612M1965.45 -343.32L2037.16 -324.106M1946.24 -271.612L2017.95 -252.398M1946.24 -271.612L1927.02 -199.904M2037.16 -324.106L2017.95 -252.398M2037.16 -324.106L2108.87 -304.892M2017.95 -252.398L2089.65 -233.184M2017.95 -252.398L1998.73 -180.69M2108.87 -304.892L2089.65 -233.184M2108.87 -304.892L2180.58 -285.678M2089.65 -233.184L2161.36 -213.969M2089.65 -233.184L2070.44 -161.475M2180.58 -285.678L2161.36 -213.969M2180.58 -285.678L2252.28 -266.463M2161.36 -213.969L2233.07 -194.755M2161.36 -213.969L2142.15 -142.261M2252.28 -266.463L2233.07 -194.755M2252.28 -266.463L2323.99 -247.249L2304.78 -175.541M2233.07 -194.755L2304.78 -175.541M2233.07 -194.755L2213.86 -123.047M2304.78 -175.541L2285.56 -103.833M206.031 -661.043L134.322 -680.257M206.031 -661.043L277.739 -641.829M206.031 -661.043L186.816 -589.335M134.322 -680.257L115.108 -608.549M277.739 -641.829L349.447 -622.614M277.739 -641.829L258.524 -570.12M349.447 -622.614L421.155 -603.4M349.447 -622.614L330.233 -550.906M421.155 -603.4L492.863 -584.186M421.155 -603.4L401.941 -531.692M492.863 -584.186L564.571 -564.972M492.863 -584.186L473.649 -512.478M564.571 -564.972L636.279 -545.758M564.571 -564.972L545.357 -493.264M636.279 -545.758L707.987 -526.544M636.279 -545.758L617.065 -474.05M707.987 -526.544L779.695 -507.33M707.987 -526.544L688.773 -454.836M779.695 -507.33L851.403 -488.116M779.695 -507.33L760.481 -435.622M851.403 -488.116L923.111 -468.901M851.403 -488.116L832.189 -416.408M923.111 -468.901L994.819 -449.687M923.111 -468.901L903.897 -397.193M994.819 -449.687L1066.53 -430.473M994.819 -449.687L975.605 -377.979M1066.53 -430.473L1138.24 -411.259M1066.53 -430.473L1047.31 -358.765M1138.24 -411.259L1209.94 -392.045M1138.24 -411.259L1119.02 -339.551M1209.94 -392.045L1281.65 -372.831M1209.94 -392.045L1190.73 -320.337M1281.65 -372.831L1353.36 -353.617M1281.65 -372.831L1262.44 -301.123M1353.36 -353.617L1425.07 -334.403M1353.36 -353.617L1334.15 -281.909M1425.07 -334.403L1496.78 -315.188M1425.07 -334.403L1405.85 -262.695M1496.78 -315.188L1568.48 -295.974M1496.78 -315.188L1477.56 -243.48M1568.48 -295.974L1640.19 -276.76M1568.48 -295.974L1549.27 -224.266M1640.19 -276.76L1711.9 -257.546M1640.19 -276.76L1620.98 -205.052M1711.9 -257.546L1783.61 -238.332M1711.9 -257.546L1692.69 -185.838M1783.61 -238.332L1855.32 -219.118M1783.61 -238.332L1764.39 -166.624M1855.32 -219.118L1927.02 -199.904M1855.32 -219.118L1836.1 -147.41M1927.02 -199.904L1998.73 -180.69M1927.02 -199.904L1907.81 -128.196M1998.73 -180.69L2070.44 -161.475M1998.73 -180.69L1979.52 -108.982M2070.44 -161.475L2142.15 -142.261M2070.44 -161.475L2051.23 -89.7674M2142.15 -142.261L2213.86 -123.047M2142.15 -142.261L2122.93 -70.5533M2213.86 -123.047L2285.56 -103.833M2213.86 -123.047L2194.64 -51.3392M2285.56 -103.833L2266.35 -32.125M186.816 -589.335L115.108 -608.549M186.816 -589.335L258.524 -570.12M186.816 -589.335L167.602 -517.627M115.108 -608.549L95.8942 -536.841M258.524 -570.12L330.233 -550.906M258.524 -570.12L239.31 -498.412M330.233 -550.906L401.941 -531.692M330.233 -550.906L311.018 -479.198M401.941 -531.692L473.649 -512.478M401.941 -531.692L382.726 -459.984M473.649 -512.478L545.357 -493.264M473.649 -512.478L454.435 -440.77M545.357 -493.264L617.065 -474.05M545.357 -493.264L526.143 -421.556M617.065 -474.05L688.773 -454.836M617.065 -474.05L597.851 -402.342M688.773 -454.836L760.481 -435.622M688.773 -454.836L669.559 -383.128M760.481 -435.622L832.189 -416.408M760.481 -435.622L741.267 -363.914M832.189 -416.408L903.897 -397.193M832.189 -416.408L812.975 -344.699M903.897 -397.193L975.605 -377.979M903.897 -397.193L884.683 -325.485M975.605 -377.979L1047.31 -358.765M975.605 -377.979L956.391 -306.271M1047.31 -358.765L1119.02 -339.551M1047.31 -358.765L1028.1 -287.057M1119.02 -339.551L1190.73 -320.337M1119.02 -339.551L1099.81 -267.843M1190.73 -320.337L1262.44 -301.123M1190.73 -320.337L1171.52 -248.629M1262.44 -301.123L1334.15 -281.909M1262.44 -301.123L1243.22 -229.415M1334.15 -281.909L1405.85 -262.695M1334.15 -281.909L1314.93 -210.201M1405.85 -262.695L1477.56 -243.48M1405.85 -262.695L1386.64 -190.986M1477.56 -243.48L1549.27 -224.266M1477.56 -243.48L1458.35 -171.772M1549.27 -224.266L1620.98 -205.052M1549.27 -224.266L1530.06 -152.558M1620.98 -205.052L1692.69 -185.838M1620.98 -205.052L1601.76 -133.344M1692.69 -185.838L1764.39 -166.624M1692.69 -185.838L1673.47 -114.13M1764.39 -166.624L1836.1 -147.41M1764.39 -166.624L1745.18 -94.9158M1836.1 -147.41L1907.81 -128.196M1836.1 -147.41L1816.89 -75.7017M1907.81 -128.196L1979.52 -108.982M1907.81 -128.196L1888.6 -56.4876M1979.52 -108.982L2051.23 -89.7674M1979.52 -108.982L1960.3 -37.2735M2051.23 -89.7674L2122.93 -70.5533M2051.23 -89.7674L2032.01 -18.0593M2122.93 -70.5533L2194.64 -51.3392M2122.93 -70.5533L2103.72 1.15479M2194.64 -51.3392L2266.35 -32.125M2194.64 -51.3392L2175.43 20.3689M2266.35 -32.125L2247.14 39.583M167.602 -517.627L95.8942 -536.841M167.602 -517.627L239.31 -498.412M167.602 -517.627L148.388 -445.918M95.8942 -536.841L76.6801 -465.133M239.31 -498.412L311.018 -479.198M239.31 -498.412L220.096 -426.704M311.018 -479.198L382.726 -459.984M311.018 -479.198L291.804 -407.49M382.726 -459.984L454.435 -440.77M382.726 -459.984L363.512 -388.276M454.435 -440.77L526.143 -421.556M454.435 -440.77L435.22 -369.062M526.143 -421.556L597.851 -402.342M526.143 -421.556L506.929 -349.848M597.851 -402.342L669.559 -383.128M597.851 -402.342L578.637 -330.634M669.559 -383.128L741.267 -363.914M669.559 -383.128L650.345 -311.42M741.267 -363.914L812.975 -344.699M741.267 -363.914L722.053 -292.205M812.975 -344.699L884.683 -325.485M812.975 -344.699L793.761 -272.991M884.683 -325.485L956.391 -306.271M884.683 -325.485L865.469 -253.777M956.391 -306.271L1028.1 -287.057M956.391 -306.271L937.177 -234.563M1028.1 -287.057L1099.81 -267.843M1028.1 -287.057L1008.89 -215.349M1099.81 -267.843L1171.52 -248.629M1099.81 -267.843L1080.59 -196.135M1171.52 -248.629L1243.22 -229.415M1171.52 -248.629L1152.3 -176.921M1243.22 -229.415L1314.93 -210.201M1243.22 -229.415L1224.01 -157.707M1314.93 -210.201L1386.64 -190.986M1314.93 -210.201L1295.72 -138.492M1386.64 -190.986L1458.35 -171.772M1386.64 -190.986L1367.43 -119.278M1458.35 -171.772L1530.06 -152.558M1458.35 -171.772L1439.13 -100.064M1530.06 -152.558L1601.76 -133.344M1530.06 -152.558L1510.84 -80.8501M1601.76 -133.344L1673.47 -114.13M1601.76 -133.344L1582.55 -61.636M1673.47 -114.13L1745.18 -94.9158M1673.47 -114.13L1654.26 -42.4219M1745.18 -94.9158L1816.89 -75.7017M1745.18 -94.9158L1725.97 -23.2077M1816.89 -75.7017L1888.6 -56.4876M1816.89 -75.7017L1797.67 -3.99363M1888.6 -56.4876L1960.3 -37.2735M1888.6 -56.4876L1869.38 15.2205M1960.3 -37.2735L2032.01 -18.0593M1960.3 -37.2735L1941.09 34.4346M2032.01 -18.0593L2103.72 1.15479M2032.01 -18.0593L2012.8 53.6487M2103.72 1.15479L2175.43 20.3689M2103.72 1.15479L2084.51 72.8629M2175.43 20.3689L2247.14 39.583M2175.43 20.3689L2156.21 92.077M2247.14 39.583L2227.92 111.291M148.388 -445.918L76.6801 -465.133M148.388 -445.918L220.096 -426.704M148.388 -445.918L129.174 -374.21M76.6801 -465.133L57.4659 -393.424M220.096 -426.704L291.804 -407.49M220.096 -426.704L200.882 -354.996M291.804 -407.49L363.512 -388.276M291.804 -407.49L272.59 -335.782M363.512 -388.276L435.22 -369.062M363.512 -388.276L344.298 -316.568M435.22 -369.062L506.929 -349.848M435.22 -369.062L416.006 -297.354M506.929 -349.848L578.637 -330.634M506.929 -349.848L487.714 -278.14M578.637 -330.634L650.345 -311.42M578.637 -330.634L559.422 -258.926M650.345 -311.42L722.053 -292.205M650.345 -311.42L631.131 -239.712M722.053 -292.205L793.761 -272.991M722.053 -292.205L702.839 -220.497M793.761 -272.991L865.469 -253.777M793.761 -272.991L774.547 -201.283M865.469 -253.777L937.177 -234.563M865.469 -253.777L846.255 -182.069M937.177 -234.563L1008.89 -215.349M937.177 -234.563L917.963 -162.855M1008.89 -215.349L1080.59 -196.135M1008.89 -215.349L989.671 -143.641M1080.59 -196.135L1152.3 -176.921M1080.59 -196.135L1061.38 -124.427M1152.3 -176.921L1224.01 -157.707M1152.3 -176.921L1133.09 -105.213M1224.01 -157.707L1295.72 -138.492M1224.01 -157.707L1204.8 -85.9985M1295.72 -138.492L1367.43 -119.278M1295.72 -138.492L1276.5 -66.7844M1367.43 -119.278L1439.13 -100.064M1367.43 -119.278L1348.21 -47.5703M1439.13 -100.064L1510.84 -80.8501M1439.13 -100.064L1419.92 -28.3562M1510.84 -80.8501L1582.55 -61.636M1510.84 -80.8501L1491.63 -9.14204M1582.55 -61.636L1654.26 -42.4219M1582.55 -61.636L1563.34 10.0721M1654.26 -42.4219L1725.97 -23.2077M1654.26 -42.4219L1635.04 29.2862M1725.97 -23.2077L1797.67 -3.99363M1725.97 -23.2077L1706.75 48.5003M1797.67 -3.99363L1869.38 15.2205M1797.67 -3.99363L1778.46 67.7145M1869.38 15.2205L1941.09 34.4346M1869.38 15.2205L1850.17 86.9286M1941.09 34.4346L2012.8 53.6487M1941.09 34.4346L1921.88 106.143M2012.8 53.6487L2084.51 72.8629M2012.8 53.6487L1993.58 125.357M2084.51 72.8629L2156.21 92.077M2084.51 72.8629L2065.29 144.571M2156.21 92.077L2227.92 111.291M2156.21 92.077L2137 163.785M2227.92 111.291L2208.71 182.999M129.174 -374.21L57.4659 -393.424M129.174 -374.21L200.882 -354.996M129.174 -374.21L109.96 -302.502M57.4659 -393.424L38.2518 -321.716M200.882 -354.996L272.59 -335.782M200.882 -354.996L181.668 -283.288M272.59 -335.782L344.298 -316.568M272.59 -335.782L253.376 -264.074M344.298 -316.568L416.006 -297.354M344.298 -316.568L325.084 -244.86M416.006 -297.354L487.714 -278.14M416.006 -297.354L396.792 -225.646M487.714 -278.14L559.422 -258.926M487.714 -278.14L468.5 -206.432M559.422 -258.926L631.131 -239.712M559.422 -258.926L540.208 -187.218M631.131 -239.712L702.839 -220.497M631.131 -239.712L611.916 -168.003M702.839 -220.497L774.547 -201.283M702.839 -220.497L683.625 -148.789M774.547 -201.283L846.255 -182.069M774.547 -201.283L755.333 -129.575M846.255 -182.069L917.963 -162.855M846.255 -182.069L827.041 -110.361M917.963 -162.855L989.671 -143.641M917.963 -162.855L898.749 -91.1469M989.671 -143.641L1061.38 -124.427M989.671 -143.641L970.457 -71.9328M1061.38 -124.427L1133.09 -105.213M1061.38 -124.427L1042.16 -52.7187M1133.09 -105.213L1204.8 -85.9985M1133.09 -105.213L1113.87 -33.5046M1204.8 -85.9985L1276.5 -66.7844M1204.8 -85.9985L1185.58 -14.2905M1276.5 -66.7844L1348.21 -47.5703M1276.5 -66.7844L1257.29 4.92367M1348.21 -47.5703L1419.92 -28.3562M1348.21 -47.5703L1329 24.1378M1419.92 -28.3562L1491.63 -9.14204M1419.92 -28.3562L1400.71 43.3519M1491.63 -9.14204L1563.34 10.0721M1491.63 -9.14204L1472.41 62.566M1563.34 10.0721L1635.04 29.2862M1563.34 10.0721L1544.12 81.7802M1635.04 29.2862L1706.75 48.5003M1635.04 29.2862L1615.83 100.994M1706.75 48.5003L1778.46 67.7145M1706.75 48.5003L1687.54 120.208M1778.46 67.7145L1850.17 86.9286M1778.46 67.7145L1759.25 139.423M1850.17 86.9286L1921.88 106.143M1850.17 86.9286L1830.95 158.637M1921.88 106.143L1993.58 125.357M1921.88 106.143L1902.66 177.851M1993.58 125.357L2065.29 144.571M1993.58 125.357L1974.37 197.065M2065.29 144.571L2137 163.785M2065.29 144.571L2046.08 216.279M2137 163.785L2208.71 182.999M2137 163.785L2117.79 235.493M2208.71 182.999L2189.49 254.707M109.96 -302.502L38.2518 -321.716M109.96 -302.502L181.668 -283.288M109.96 -302.502L90.7458 -230.794M38.2518 -321.716L19.0377 -250.008M181.668 -283.288L253.376 -264.074M181.668 -283.288L162.454 -211.58M253.376 -264.074L325.084 -244.86M253.376 -264.074L234.162 -192.366M325.084 -244.86L396.792 -225.646M325.084 -244.86L305.87 -173.152M396.792 -225.646L468.5 -206.432M396.792 -225.646L377.578 -153.938M468.5 -206.432L540.208 -187.218M468.5 -206.432L449.286 -134.724M540.208 -187.218L611.916 -168.003M540.208 -187.218L520.994 -115.509M611.916 -168.003L683.625 -148.789M611.916 -168.003L592.702 -96.2954M683.625 -148.789L755.333 -129.575M683.625 -148.789L664.41 -77.0812M755.333 -129.575L827.041 -110.361M755.333 -129.575L736.118 -57.8671M827.041 -110.361L898.749 -91.1469M827.041 -110.361L807.827 -38.653M898.749 -91.1469L970.457 -71.9328M898.749 -91.1469L879.535 -19.4389M970.457 -71.9328L1042.16 -52.7187M970.457 -71.9328L951.243 -0.224742M1042.16 -52.7187L1113.87 -33.5046M1042.16 -52.7187L1022.95 18.9894M1113.87 -33.5046L1185.58 -14.2905M1113.87 -33.5046L1094.66 38.2035M1185.58 -14.2905L1257.29 4.92367M1185.58 -14.2905L1166.37 57.4176M1257.29 4.92367L1329 24.1378M1257.29 4.92367L1238.08 76.6317M1329 24.1378L1400.71 43.3519M1329 24.1378L1309.78 95.8459M1400.71 43.3519L1472.41 62.566M1400.71 43.3519L1381.49 115.06M1472.41 62.566L1544.12 81.7802M1472.41 62.566L1453.2 134.274M1544.12 81.7802L1615.83 100.994M1544.12 81.7802L1524.91 153.488M1615.83 100.994L1687.54 120.208M1615.83 100.994L1596.62 172.702M1687.54 120.208L1759.25 139.423M1687.54 120.208L1668.32 191.916M1759.25 139.423L1830.95 158.637M1759.25 139.423L1740.03 211.131M1830.95 158.637L1902.66 177.851M1830.95 158.637L1811.74 230.345M1902.66 177.851L1974.37 197.065M1902.66 177.851L1883.45 249.559M1974.37 197.065L2046.08 216.279M1974.37 197.065L1955.16 268.773M2046.08 216.279L2117.79 235.493M2046.08 216.279L2026.86 287.987M2117.79 235.493L2189.49 254.707M2117.79 235.493L2098.57 307.201M2189.49 254.707L2170.28 326.415M90.7458 -230.794L19.0377 -250.008M90.7458 -230.794L162.454 -211.58M90.7458 -230.794L71.5316 -159.086M19.0377 -250.008L-0.176436 -178.3M162.454 -211.58L234.162 -192.366M162.454 -211.58L143.24 -139.872M234.162 -192.366L305.87 -173.152M234.162 -192.366L214.948 -120.658M305.87 -173.152L377.578 -153.938M305.87 -173.152L286.656 -101.444M377.578 -153.938L449.286 -134.724M377.578 -153.938L358.364 -82.2296M449.286 -134.724L520.994 -115.509M449.286 -134.724L430.072 -63.0155M520.994 -115.509L592.702 -96.2954M520.994 -115.509L501.78 -43.8014M592.702 -96.2954L664.41 -77.0812M592.702 -96.2954L573.488 -24.5873M664.41 -77.0812L736.118 -57.8671M664.41 -77.0812L645.196 -5.37316M736.118 -57.8671L807.827 -38.653M736.118 -57.8671L716.904 13.841M807.827 -38.653L879.535 -19.4389M807.827 -38.653L788.612 33.0551M879.535 -19.4389L951.243 -0.224742M879.535 -19.4389L860.321 52.2692M951.243 -0.224742L1022.95 18.9894M951.243 -0.224742L932.029 71.4833M1022.95 18.9894L1094.66 38.2035M1022.95 18.9894L1003.74 90.6975M1094.66 38.2035L1166.37 57.4176M1094.66 38.2035L1075.44 109.912M1166.37 57.4176L1238.08 76.6317M1166.37 57.4176L1147.15 129.126M1238.08 76.6317L1309.78 95.8459M1238.08 76.6317L1218.86 148.34M1309.78 95.8459L1381.49 115.06M1309.78 95.8459L1290.57 167.554M1381.49 115.06L1453.2 134.274M1381.49 115.06L1362.28 186.768M1453.2 134.274L1524.91 153.488M1453.2 134.274L1433.99 205.982M1524.91 153.488L1596.62 172.702M1524.91 153.488L1505.69 225.196M1596.62 172.702L1668.32 191.916M1596.62 172.702L1577.4 244.41M1668.32 191.916L1740.03 211.131M1668.32 191.916L1649.11 263.625M1740.03 211.131L1811.74 230.345M1740.03 211.131L1720.82 282.839M1811.74 230.345L1883.45 249.559M1811.74 230.345L1792.53 302.053M1883.45 249.559L1955.16 268.773M1883.45 249.559L1864.23 321.267M1955.16 268.773L2026.86 287.987M1955.16 268.773L1935.94 340.481M2026.86 287.987L2098.57 307.201M2026.86 287.987L2007.65 359.695M2098.57 307.201L2170.28 326.415M2098.57 307.201L2079.36 378.909M2170.28 326.415L2151.07 398.123M71.5316 -159.086L-0.176436 -178.3M71.5316 -159.086L143.24 -139.872M71.5316 -159.086L52.3175 -87.3781M-0.176436 -178.3L-19.3906 -106.592M143.24 -139.872L214.948 -120.658M143.24 -139.872L124.026 -68.1639M214.948 -120.658L286.656 -101.444M214.948 -120.658L195.734 -48.9498M286.656 -101.444L358.364 -82.2296M286.656 -101.444L267.442 -29.7357M358.364 -82.2296L430.072 -63.0155M358.364 -82.2296L339.15 -10.5216M430.072 -63.0155L501.78 -43.8014M430.072 -63.0155L410.858 8.69255M501.78 -43.8014L573.488 -24.5873M501.78 -43.8014L482.566 27.9067M573.488 -24.5873L645.196 -5.37316M573.488 -24.5873L554.274 47.1208M645.196 -5.37316L716.904 13.841M645.196 -5.37316L625.982 66.3349M716.904 13.841L788.612 33.0551M716.904 13.841L697.69 85.549M788.612 33.0551L860.321 52.2692M788.612 33.0551L769.398 104.763M860.321 52.2692L932.029 71.4833M860.321 52.2692L841.106 123.977M932.029 71.4833L1003.74 90.6975M932.029 71.4833L912.814 143.191M1003.74 90.6975L1075.44 109.912M1003.74 90.6975L984.523 162.406M1075.44 109.912L1147.15 129.126M1075.44 109.912L1056.23 181.62M1147.15 129.126L1218.86 148.34M1147.15 129.126L1127.94 200.834M1218.86 148.34L1290.57 167.554M1218.86 148.34L1199.65 220.048M1290.57 167.554L1362.28 186.768M1290.57 167.554L1271.35 239.262M1362.28 186.768L1433.99 205.982M1362.28 186.768L1343.06 258.476M1433.99 205.982L1505.69 225.196M1433.99 205.982L1414.77 277.69M1505.69 225.196L1577.4 244.41M1505.69 225.196L1486.48 296.904M1577.4 244.41L1649.11 263.625M1577.4 244.41L1558.19 316.119M1649.11 263.625L1720.82 282.839M1649.11 263.625L1629.9 335.333M1720.82 282.839L1792.53 302.053M1720.82 282.839L1701.6 354.547M1792.53 302.053L1864.23 321.267M1792.53 302.053L1773.31 373.761M1864.23 321.267L1935.94 340.481M1864.23 321.267L1845.02 392.975M1935.94 340.481L2007.65 359.695M1935.94 340.481L1916.73 412.189M2007.65 359.695L2079.36 378.909M2007.65 359.695L1988.44 431.403M2079.36 378.909L2151.07 398.123M2079.36 378.909L2060.14 450.617M2151.07 398.123L2131.85 469.832M52.3175 -87.3781L-19.3906 -106.592M52.3175 -87.3781L124.026 -68.1639M52.3175 -87.3781L33.1034 -15.67M-19.3906 -106.592L-38.6047 -34.8841M124.026 -68.1639L195.734 -48.9498M124.026 -68.1639L104.811 3.54414M195.734 -48.9498L267.442 -29.7357M195.734 -48.9498L176.52 22.7583M267.442 -29.7357L339.15 -10.5216M267.442 -29.7357L248.228 41.9724M339.15 -10.5216L410.858 8.69255M339.15 -10.5216L319.936 61.1865M410.858 8.69255L482.566 27.9067M410.858 8.69255L391.644 80.4006M482.566 27.9067L554.274 47.1208M482.566 27.9067L463.352 99.6148M554.274 47.1208L625.982 66.3349M554.274 47.1208L535.06 118.829M625.982 66.3349L697.69 85.549M625.982 66.3349L606.768 138.043M697.69 85.549L769.398 104.763M697.69 85.549L678.476 157.257M769.398 104.763L841.106 123.977M769.398 104.763L750.184 176.471M841.106 123.977L912.814 143.191M841.106 123.977L821.892 195.685M912.814 143.191L984.523 162.406M912.814 143.191L893.6 214.899M984.523 162.406L1056.23 181.62M984.523 162.406L965.308 234.114M1056.23 181.62L1127.94 200.834M1056.23 181.62L1037.02 253.328M1127.94 200.834L1199.65 220.048M1127.94 200.834L1108.72 272.542M1199.65 220.048L1271.35 239.262M1199.65 220.048L1180.43 291.756M1271.35 239.262L1343.06 258.476M1271.35 239.262L1252.14 310.97M1343.06 258.476L1414.77 277.69M1343.06 258.476L1323.85 330.184M1414.77 277.69L1486.48 296.904M1414.77 277.69L1395.56 349.398M1486.48 296.904L1558.19 316.119M1486.48 296.904L1467.26 368.612M1558.19 316.119L1629.9 335.333M1558.19 316.119L1538.97 387.827M1629.9 335.333L1701.6 354.547M1629.9 335.333L1610.68 407.041M1701.6 354.547L1773.31 373.761M1701.6 354.547L1682.39 426.255M1773.31 373.761L1845.02 392.975M1773.31 373.761L1754.1 445.469M1845.02 392.975L1916.73 412.189M1845.02 392.975L1825.81 464.683M1916.73 412.189L1988.44 431.403M1916.73 412.189L1897.51 483.897M1988.44 431.403L2060.14 450.617M1988.44 431.403L1969.22 503.111M2060.14 450.617L2131.85 469.832M2060.14 450.617L2040.93 522.325M2131.85 469.832L2112.64 541.54M33.1034 -15.67L-38.6047 -34.8841M33.1034 -15.67L104.811 3.54414M33.1034 -15.67L13.8893 56.0381M-38.6047 -34.8841L-57.8188 36.824M104.811 3.54414L176.52 22.7583M104.811 3.54414L85.5974 75.2522M176.52 22.7583L248.228 41.9724M176.52 22.7583L157.305 94.4663M248.228 41.9724L319.936 61.1865M248.228 41.9724L229.014 113.68M319.936 61.1865L391.644 80.4006M319.936 61.1865L300.722 132.895M391.644 80.4006L463.352 99.6148M391.644 80.4006L372.43 152.109M463.352 99.6148L535.06 118.829M463.352 99.6148L444.138 171.323M535.06 118.829L606.768 138.043M535.06 118.829L515.846 190.537M606.768 138.043L678.476 157.257M606.768 138.043L587.554 209.751M678.476 157.257L750.184 176.471M678.476 157.257L659.262 228.965M750.184 176.471L821.892 195.685M750.184 176.471L730.97 248.179M821.892 195.685L893.6 214.899M821.892 195.685L802.678 267.393M893.6 214.899L965.308 234.114M893.6 214.899L874.386 286.608M965.308 234.114L1037.02 253.328M965.308 234.114L946.094 305.822M1037.02 253.328L1108.72 272.542M1037.02 253.328L1017.8 325.036M1108.72 272.542L1180.43 291.756M1108.72 272.542L1089.51 344.25M1180.43 291.756L1252.14 310.97M1180.43 291.756L1161.22 363.464M1252.14 310.97L1323.85 330.184M1252.14 310.97L1232.93 382.678M1323.85 330.184L1395.56 349.398M1323.85 330.184L1304.63 401.892M1395.56 349.398L1467.26 368.612M1395.56 349.398L1376.34 421.106M1467.26 368.612L1538.97 387.827M1467.26 368.612L1448.05 440.321M1538.97 387.827L1610.68 407.041M1538.97 387.827L1519.76 459.535M1610.68 407.041L1682.39 426.255M1610.68 407.041L1591.47 478.749M1682.39 426.255L1754.1 445.469M1682.39 426.255L1663.18 497.963M1754.1 445.469L1825.81 464.683M1754.1 445.469L1734.88 517.177M1825.81 464.683L1897.51 483.897M1825.81 464.683L1806.59 536.391M1897.51 483.897L1969.22 503.111M1897.51 483.897L1878.3 555.605M1969.22 503.111L2040.93 522.325M1969.22 503.111L1950.01 574.819M2040.93 522.325L2112.64 541.54M2040.93 522.325L2021.72 594.034M2112.64 541.54L2093.42 613.248M13.8893 56.0381L-57.8188 36.824M13.8893 56.0381L85.5974 75.2522M13.8893 56.0381L-5.32485 127.746M-57.8188 36.824L-77.0329 108.532M85.5974 75.2522L157.305 94.4663M85.5974 75.2522L66.3832 146.96M157.305 94.4663L229.014 113.68M157.305 94.4663L138.091 166.174M229.014 113.68L300.722 132.895M229.014 113.68L209.799 185.389M300.722 132.895L372.43 152.109M300.722 132.895L281.507 204.603M372.43 152.109L444.138 171.323M372.43 152.109L353.216 223.817M444.138 171.323L515.846 190.537M444.138 171.323L424.924 243.031M515.846 190.537L587.554 209.751M515.846 190.537L496.632 262.245M587.554 209.751L659.262 228.965M587.554 209.751L568.34 281.459M659.262 228.965L730.97 248.179M659.262 228.965L640.048 300.673M730.97 248.179L802.678 267.393M730.97 248.179L711.756 319.887M802.678 267.393L874.386 286.608M802.678 267.393L783.464 339.102M874.386 286.608L946.094 305.822M874.386 286.608L855.172 358.316M946.094 305.822L1017.8 325.036M946.094 305.822L926.88 377.53M1017.8 325.036L1089.51 344.25M1017.8 325.036L998.588 396.744M1089.51 344.25L1161.22 363.464M1089.51 344.25L1070.3 415.958M1161.22 363.464L1232.93 382.678M1161.22 363.464L1142 435.172M1232.93 382.678L1304.63 401.892M1232.93 382.678L1213.71 454.386M1304.63 401.892L1376.34 421.106M1304.63 401.892L1285.42 473.6M1376.34 421.106L1448.05 440.321M1376.34 421.106L1357.13 492.815M1448.05 440.321L1519.76 459.535M1448.05 440.321L1428.84 512.029M1519.76 459.535L1591.47 478.749M1519.76 459.535L1500.54 531.243M1591.47 478.749L1663.18 497.963M1591.47 478.749L1572.25 550.457M1663.18 497.963L1734.88 517.177M1663.18 497.963L1643.96 569.671M1734.88 517.177L1806.59 536.391M1734.88 517.177L1715.67 588.885M1806.59 536.391L1878.3 555.605M1806.59 536.391L1787.38 608.099M1878.3 555.605L1950.01 574.819M1878.3 555.605L1859.09 627.313M1950.01 574.819L2021.72 594.034M1950.01 574.819L1930.79 646.527M2021.72 594.034L2093.42 613.248M2021.72 594.034L2002.5 665.742M2093.42 613.248L2074.21 684.956M-5.32485 127.746L-77.0329 108.532M-5.32485 127.746L66.3832 146.96M-5.32485 127.746L-24.539 199.454M-77.0329 108.532L-96.2471 180.24M66.3832 146.96L138.091 166.174M66.3832 146.96L47.1691 218.668M138.091 166.174L209.799 185.389M138.091 166.174L118.877 237.883M209.799 185.389L281.507 204.603M209.799 185.389L190.585 257.097M281.507 204.603L353.216 223.817M281.507 204.603L262.293 276.311M353.216 223.817L424.924 243.031M353.216 223.817L334.001 295.525M424.924 243.031L496.632 262.245M424.924 243.031L405.71 314.739M496.632 262.245L568.34 281.459M496.632 262.245L477.418 333.953M568.34 281.459L640.048 300.673M568.34 281.459L549.126 353.167M640.048 300.673L711.756 319.887M640.048 300.673L620.834 372.381M711.756 319.887L783.464 339.102M711.756 319.887L692.542 391.595M783.464 339.102L855.172 358.316M783.464 339.102L764.25 410.81M855.172 358.316L926.88 377.53M855.172 358.316L835.958 430.024M926.88 377.53L998.588 396.744M926.88 377.53L907.666 449.238M998.588 396.744L1070.3 415.958M998.588 396.744L979.374 468.452M1070.3 415.958L1142 435.172M1070.3 415.958L1051.08 487.666M1142 435.172L1213.71 454.386M1142 435.172L1122.79 506.88M1213.71 454.386L1285.42 473.6M1213.71 454.386L1194.5 526.094M1285.42 473.6L1357.13 492.815M1285.42 473.6L1266.21 545.308M1357.13 492.815L1428.84 512.029M1357.13 492.815L1337.91 564.523M1428.84 512.029L1500.54 531.243M1428.84 512.029L1409.62 583.737M1500.54 531.243L1572.25 550.457M1500.54 531.243L1481.33 602.951M1572.25 550.457L1643.96 569.671M1572.25 550.457L1553.04 622.165M1643.96 569.671L1715.67 588.885M1643.96 569.671L1624.75 641.379M1715.67 588.885L1787.38 608.099M1715.67 588.885L1696.45 660.593M1787.38 608.099L1859.09 627.313M1787.38 608.099L1768.16 679.807M1859.09 627.313L1930.79 646.527M1859.09 627.313L1839.87 699.021M1930.79 646.527L2002.5 665.742M1930.79 646.527L1911.58 718.236M2002.5 665.742L2074.21 684.956M2002.5 665.742L1983.29 737.45M2074.21 684.956L2055 756.664M-24.539 199.454L-96.2471 180.24M-24.539 199.454L47.1691 218.668M-24.539 199.454L-43.7531 271.162M-96.2471 180.24L-115.461 251.948M47.1691 218.668L118.877 237.883M47.1691 218.668L27.955 290.376M118.877 237.883L190.585 257.097M118.877 237.883L99.6631 309.591M190.585 257.097L262.293 276.311M190.585 257.097L171.371 328.805M262.293 276.311L334.001 295.525M262.293 276.311L243.079 348.019M334.001 295.525L405.71 314.739M334.001 295.525L314.787 367.233M405.71 314.739L477.418 333.953M405.71 314.739L386.495 386.447M477.418 333.953L549.126 353.167M477.418 333.953L458.203 405.661M549.126 353.167L620.834 372.381M549.126 353.167L529.912 424.875M620.834 372.381L692.542 391.595M620.834 372.381L601.62 444.089M692.542 391.595L764.25 410.81M692.542 391.595L673.328 463.304M764.25 410.81L835.958 430.024M764.25 410.81L745.036 482.518M835.958 430.024L907.666 449.238M835.958 430.024L816.744 501.732M907.666 449.238L979.374 468.452M907.666 449.238L888.452 520.946M979.374 468.452L1051.08 487.666M979.374 468.452L960.16 540.16M1051.08 487.666L1122.79 506.88M1051.08 487.666L1031.87 559.374M1122.79 506.88L1194.5 526.094M1122.79 506.88L1103.58 578.588M1194.5 526.094L1266.21 545.308M1194.5 526.094L1175.28 597.802M1266.21 545.308L1337.91 564.523M1266.21 545.308L1246.99 617.017M1337.91 564.523L1409.62 583.737M1337.91 564.523L1318.7 636.231M1409.62 583.737L1481.33 602.951M1409.62 583.737L1390.41 655.445M1481.33 602.951L1553.04 622.165M1481.33 602.951L1462.12 674.659M1553.04 622.165L1624.75 641.379M1553.04 622.165L1533.82 693.873M1624.75 641.379L1696.45 660.593M1624.75 641.379L1605.53 713.087M1696.45 660.593L1768.16 679.807M1696.45 660.593L1677.24 732.301M1768.16 679.807L1839.87 699.021M1768.16 679.807L1748.95 751.515M1839.87 699.021L1911.58 718.236M1839.87 699.021L1820.66 770.73M1911.58 718.236L1983.29 737.45M1911.58 718.236L1892.37 789.944M1983.29 737.45L2055 756.664M1983.29 737.45L1964.07 809.158M2055 756.664L2035.78 828.372M-43.7531 271.162L-115.461 251.948M-43.7531 271.162L27.955 290.376M-43.7531 271.162L-62.9672 342.87M-115.461 251.948L-134.675 323.656M27.955 290.376L99.6631 309.591M27.955 290.376L8.74086 362.085M99.6631 309.591L171.371 328.805M99.6631 309.591L80.4489 381.299M171.371 328.805L243.079 348.019M171.371 328.805L152.157 400.513M243.079 348.019L314.787 367.233M243.079 348.019L223.865 419.727M314.787 367.233L386.495 386.447M314.787 367.233L295.573 438.941M386.495 386.447L458.203 405.661M386.495 386.447L367.281 458.155M458.203 405.661L529.912 424.875M458.203 405.661L438.989 477.369M529.912 424.875L601.62 444.089M529.912 424.875L510.697 496.583M601.62 444.089L673.328 463.304M601.62 444.089L582.405 515.798M673.328 463.304L745.036 482.518M673.328 463.304L654.114 535.012M745.036 482.518L816.744 501.732M745.036 482.518L725.822 554.226M816.744 501.732L888.452 520.946M816.744 501.732L797.53 573.44M888.452 520.946L960.16 540.16M888.452 520.946L869.238 592.654M960.16 540.16L1031.87 559.374M960.16 540.16L940.946 611.868M1031.87 559.374L1103.58 578.588M1031.87 559.374L1012.65 631.082M1103.58 578.588L1175.28 597.802M1103.58 578.588L1084.36 650.296M1175.28 597.802L1246.99 617.017M1175.28 597.802L1156.07 669.511M1246.99 617.017L1318.7 636.231M1246.99 617.017L1227.78 688.725M1318.7 636.231L1390.41 655.445M1318.7 636.231L1299.49 707.939M1390.41 655.445L1462.12 674.659M1390.41 655.445L1371.19 727.153M1462.12 674.659L1533.82 693.873M1462.12 674.659L1442.9 746.367M1533.82 693.873L1605.53 713.087M1533.82 693.873L1514.61 765.581M1605.53 713.087L1677.24 732.301M1605.53 713.087L1586.32 784.795M1677.24 732.301L1748.95 751.515M1677.24 732.301L1658.03 804.009M1748.95 751.515L1820.66 770.73M1748.95 751.515L1729.73 823.223M1820.66 770.73L1892.37 789.944M1820.66 770.73L1801.44 842.438M1892.37 789.944L1964.07 809.158M1892.37 789.944L1873.15 861.652M1964.07 809.158L2035.78 828.372M1964.07 809.158L1944.86 880.866M2035.78 828.372L2016.57 900.08M-62.9672 342.87L-134.675 323.656M-62.9672 342.87L8.74086 362.085M-62.9672 342.87L-82.1813 414.578M-134.675 323.656L-153.889 395.364M8.74086 362.085L80.4489 381.299M8.74086 362.085L-10.4733 433.793M80.4489 381.299L152.157 400.513M80.4489 381.299L61.2348 453.007M152.157 400.513L223.865 419.727M152.157 400.513L132.943 472.221M223.865 419.727L295.573 438.941M223.865 419.727L204.651 491.435M295.573 438.941L367.281 458.155M295.573 438.941L276.359 510.649M367.281 458.155L438.989 477.369M367.281 458.155L348.067 529.863M438.989 477.369L510.697 496.583M438.989 477.369L419.775 549.077M510.697 496.583L582.405 515.798M510.697 496.583L491.483 568.291M582.405 515.798L654.114 535.012M582.405 515.798L563.191 587.506M654.114 535.012L725.822 554.226M654.114 535.012L634.899 606.72M725.822 554.226L797.53 573.44M725.822 554.226L706.608 625.934M797.53 573.44L869.238 592.654M797.53 573.44L778.316 645.148M869.238 592.654L940.946 611.868M869.238 592.654L850.024 664.362M940.946 611.868L1012.65 631.082M940.946 611.868L921.732 683.576M1012.65 631.082L1084.36 650.296M1012.65 631.082L993.44 702.79M1084.36 650.296L1156.07 669.511M1084.36 650.296L1065.15 722.004M1156.07 669.511L1227.78 688.725M1156.07 669.511L1136.86 741.219M1227.78 688.725L1299.49 707.939M1227.78 688.725L1208.56 760.433M1299.49 707.939L1371.19 727.153M1299.49 707.939L1280.27 779.647M1371.19 727.153L1442.9 746.367M1371.19 727.153L1351.98 798.861M1442.9 746.367L1514.61 765.581M1442.9 746.367L1423.69 818.075M1514.61 765.581L1586.32 784.795M1514.61 765.581L1495.4 837.289M1586.32 784.795L1658.03 804.009M1586.32 784.795L1567.1 856.503M1658.03 804.009L1729.73 823.223M1658.03 804.009L1638.81 875.717M1729.73 823.223L1801.44 842.438M1729.73 823.223L1710.52 894.932M1801.44 842.438L1873.15 861.652M1801.44 842.438L1782.23 914.146M1873.15 861.652L1944.86 880.866M1873.15 861.652L1853.94 933.36M1944.86 880.866L2016.57 900.08M1944.86 880.866L1925.64 952.574M2016.57 900.08L1997.35 971.788M-82.1813 414.578L-153.889 395.364M-82.1813 414.578L-10.4733 433.793M-82.1813 414.578L-101.395 486.287M-153.889 395.364L-173.104 467.072M-10.4733 433.793L61.2348 453.007M-10.4733 433.793L-29.6874 505.501M61.2348 453.007L132.943 472.221M61.2348 453.007L42.0207 524.715M132.943 472.221L204.651 491.435M132.943 472.221L113.729 543.929M204.651 491.435L276.359 510.649M204.651 491.435L185.437 563.143M276.359 510.649L348.067 529.863M276.359 510.649L257.145 582.357M348.067 529.863L419.775 549.077M348.067 529.863L328.853 601.571M419.775 549.077L491.483 568.291M419.775 549.077L400.561 620.785M491.483 568.291L563.191 587.506M491.483 568.291L472.269 640M563.191 587.506L634.899 606.72M563.191 587.506L543.977 659.214M634.899 606.72L706.608 625.934M634.899 606.72L615.685 678.428M706.608 625.934L778.316 645.148M706.608 625.934L687.393 697.642M778.316 645.148L850.024 664.362M778.316 645.148L759.101 716.856M850.024 664.362L921.732 683.576M850.024 664.362L830.81 736.07M921.732 683.576L993.44 702.79M921.732 683.576L902.518 755.284M993.44 702.79L1065.15 722.004M993.44 702.79L974.226 774.498M1065.15 722.004L1136.86 741.219M1065.15 722.004L1045.93 793.713M1136.86 741.219L1208.56 760.433M1136.86 741.219L1117.64 812.927M1208.56 760.433L1280.27 779.647M1208.56 760.433L1189.35 832.141M1280.27 779.647L1351.98 798.861M1280.27 779.647L1261.06 851.355M1351.98 798.861L1423.69 818.075M1351.98 798.861L1332.77 870.569M1423.69 818.075L1495.4 837.289M1423.69 818.075L1404.47 889.783M1495.4 837.289L1567.1 856.503M1495.4 837.289L1476.18 908.997M1567.1 856.503L1638.81 875.717M1567.1 856.503L1547.89 928.211M1638.81 875.717L1710.52 894.932M1638.81 875.717L1619.6 947.426M1710.52 894.932L1782.23 914.146M1710.52 894.932L1691.31 966.64M1782.23 914.146L1853.94 933.36M1782.23 914.146L1763.01 985.854M1853.94 933.36L1925.64 952.574M1853.94 933.36L1834.72 1005.07M1925.64 952.574L1997.35 971.788M1925.64 952.574L1906.43 1024.28M1997.35 971.788L1978.14 1043.5M-101.395 486.287L-173.104 467.072M-101.395 486.287L-29.6874 505.501M-101.395 486.287L-120.61 557.995M-173.104 467.072L-192.318 538.781M-29.6874 505.501L42.0207 524.715M-29.6874 505.501L-48.9015 577.209M42.0207 524.715L113.729 543.929M42.0207 524.715L22.8066 596.423M113.729 543.929L185.437 563.143M113.729 543.929L94.5146 615.637M185.437 563.143L257.145 582.357M185.437 563.143L166.223 634.851M257.145 582.357L328.853 601.571M257.145 582.357L237.931 654.065M328.853 601.571L400.561 620.785M328.853 601.571L309.639 673.279M400.561 620.785L472.269 640M400.561 620.785L381.347 692.494M472.269 640L543.977 659.214M472.269 640L453.055 711.708M543.977 659.214L615.685 678.428M543.977 659.214L524.763 730.922M615.685 678.428L687.393 697.642M615.685 678.428L596.471 750.136M687.393 697.642L759.101 716.856M687.393 697.642L668.179 769.35M759.101 716.856L830.81 736.07M759.101 716.856L739.887 788.564M830.81 736.07L902.518 755.284M830.81 736.07L811.595 807.778M902.518 755.284L974.226 774.498M902.518 755.284L883.304 826.992M974.226 774.498L1045.93 793.713M974.226 774.498L955.012 846.206M1045.93 793.713L1117.64 812.927M1045.93 793.713L1026.72 865.421M1117.64 812.927L1189.35 832.141M1117.64 812.927L1098.43 884.635M1189.35 832.141L1261.06 851.355M1189.35 832.141L1170.14 903.849M1261.06 851.355L1332.77 870.569M1261.06 851.355L1241.84 923.063M1332.77 870.569L1404.47 889.783M1332.77 870.569L1313.55 942.277M1404.47 889.783L1476.18 908.997M1404.47 889.783L1385.26 961.491M1476.18 908.997L1547.89 928.211M1476.18 908.997L1456.97 980.705M1547.89 928.211L1619.6 947.426M1547.89 928.211L1528.68 999.919M1619.6 947.426L1691.31 966.64M1619.6 947.426L1600.38 1019.13M1691.31 966.64L1763.01 985.854M1691.31 966.64L1672.09 1038.35M1763.01 985.854L1834.72 1005.07M1763.01 985.854L1743.8 1057.56M1834.72 1005.07L1906.43 1024.28M1834.72 1005.07L1815.51 1076.78M1906.43 1024.28L1978.14 1043.5M1906.43 1024.28L1887.22 1095.99M1978.14 1043.5L1958.92 1115.2M-120.61 557.995L-192.318 538.781M-120.61 557.995L-48.9015 577.209M-120.61 557.995L-139.824 629.703M-192.318 538.781L-211.532 610.489M-48.9015 577.209L22.8066 596.423M-48.9015 577.209L-68.1156 648.917M22.8066 596.423L94.5146 615.637M22.8066 596.423L3.59245 668.131M94.5146 615.637L166.223 634.851M94.5146 615.637L75.3005 687.345M166.223 634.851L237.931 654.065M166.223 634.851L147.009 706.559M237.931 654.065L309.639 673.279M237.931 654.065L218.717 725.773M309.639 673.279L381.347 692.494M309.639 673.279L290.425 744.987M381.347 692.494L453.055 711.708M381.347 692.494L362.133 764.202M453.055 711.708L524.763 730.922M453.055 711.708L433.841 783.416M524.763 730.922L596.471 750.136M524.763 730.922L505.549 802.63M596.471 750.136L668.179 769.35M596.471 750.136L577.257 821.844M668.179 769.35L739.887 788.564M668.179 769.35L648.965 841.058M739.887 788.564L811.595 807.778M739.887 788.564L720.673 860.272M811.595 807.778L883.304 826.992M811.595 807.778L792.381 879.486M883.304 826.992L955.012 846.206M883.304 826.992L864.089 898.7M955.012 846.206L1026.72 865.421M955.012 846.206L935.797 917.915M1026.72 865.421L1098.43 884.635M1026.72 865.421L1007.51 937.129M1098.43 884.635L1170.14 903.849M1098.43 884.635L1079.21 956.343M1170.14 903.849L1241.84 923.063M1170.14 903.849L1150.92 975.557M1241.84 923.063L1313.55 942.277M1241.84 923.063L1222.63 994.771M1313.55 942.277L1385.26 961.491M1313.55 942.277L1294.34 1013.99M1385.26 961.491L1456.97 980.705M1385.26 961.491L1366.05 1033.2M1456.97 980.705L1528.68 999.919M1456.97 980.705L1437.75 1052.41M1528.68 999.919L1600.38 1019.13M1528.68 999.919L1509.46 1071.63M1600.38 1019.13L1672.09 1038.35M1600.38 1019.13L1581.17 1090.84M1672.09 1038.35L1743.8 1057.56M1672.09 1038.35L1652.88 1110.06M1743.8 1057.56L1815.51 1076.78M1743.8 1057.56L1724.59 1129.27M1815.51 1076.78L1887.22 1095.99M1815.51 1076.78L1796.29 1148.48M1887.22 1095.99L1958.92 1115.2M1887.22 1095.99L1868 1167.7M1958.92 1115.2L1939.71 1186.91M-139.824 629.703L-211.532 610.489M-139.824 629.703L-68.1156 648.917M-139.824 629.703L-159.038 701.411M-211.532 610.489L-230.746 682.197M-68.1156 648.917L3.59245 668.131M-68.1156 648.917L-87.3298 720.625M3.59245 668.131L75.3005 687.345M3.59245 668.131L-15.6217 739.839M75.3005 687.345L147.009 706.559M75.3005 687.345L56.0864 759.053M147.009 706.559L218.717 725.773M147.009 706.559L127.794 778.267M218.717 725.773L290.425 744.987M218.717 725.773L199.503 797.481M290.425 744.987L362.133 764.202M290.425 744.987L271.211 816.696M362.133 764.202L433.841 783.416M362.133 764.202L342.919 835.91M433.841 783.416L505.549 802.63M433.841 783.416L414.627 855.124M505.549 802.63L577.257 821.844M505.549 802.63L486.335 874.338M577.257 821.844L648.965 841.058M577.257 821.844L558.043 893.552M648.965 841.058L720.673 860.272M648.965 841.058L629.751 912.766M720.673 860.272L792.381 879.486M720.673 860.272L701.459 931.98M792.381 879.486L864.089 898.7M792.381 879.486L773.167 951.194M864.089 898.7L935.797 917.915M864.089 898.7L844.875 970.409M935.797 917.915L1007.51 937.129M935.797 917.915L916.583 989.623M1007.51 937.129L1079.21 956.343M1007.51 937.129L988.291 1008.84M1079.21 956.343L1150.92 975.557M1079.21 956.343L1060 1028.05M1150.92 975.557L1222.63 994.771M1150.92 975.557L1131.71 1047.27M1222.63 994.771L1294.34 1013.99M1222.63 994.771L1203.42 1066.48M1294.34 1013.99L1366.05 1033.2M1294.34 1013.99L1275.12 1085.69M1366.05 1033.2L1437.75 1052.41M1366.05 1033.2L1346.83 1104.91M1437.75 1052.41L1509.46 1071.63M1437.75 1052.41L1418.54 1124.12M1509.46 1071.63L1581.17 1090.84M1509.46 1071.63L1490.25 1143.34M1581.17 1090.84L1652.88 1110.06M1581.17 1090.84L1561.96 1162.55M1652.88 1110.06L1724.59 1129.27M1652.88 1110.06L1633.66 1181.76M1724.59 1129.27L1796.29 1148.48M1724.59 1129.27L1705.37 1200.98M1796.29 1148.48L1868 1167.7M1796.29 1148.48L1777.08 1220.19M1868 1167.7L1939.71 1186.91M1868 1167.7L1848.79 1239.41M1939.71 1186.91L1920.5 1258.62M-159.038 701.411L-230.746 682.197M-159.038 701.411L-87.3298 720.625M-159.038 701.411L-178.252 773.119M-230.746 682.197L-249.96 753.905M-87.3298 720.625L-15.6217 739.839M-87.3298 720.625L-106.544 792.333M-15.6217 739.839L56.0864 759.053M-15.6217 739.839L-34.8358 811.547M56.0864 759.053L127.794 778.267M56.0864 759.053L36.8723 830.761M127.794 778.267L199.503 797.481M127.794 778.267L108.58 849.975M199.503 797.481L271.211 816.696M199.503 797.481L180.288 869.19M271.211 816.696L342.919 835.91M271.211 816.696L251.997 888.404M342.919 835.91L414.627 855.124M342.919 835.91L323.705 907.618M414.627 855.124L486.335 874.338M414.627 855.124L395.413 926.832M486.335 874.338L558.043 893.552M486.335 874.338L467.121 946.046M558.043 893.552L629.751 912.766M558.043 893.552L538.829 965.26M629.751 912.766L701.459 931.98M629.751 912.766L610.537 984.474M701.459 931.98L773.167 951.194M701.459 931.98L682.245 1003.69M773.167 951.194L844.875 970.409M773.167 951.194L753.953 1022.9M844.875 970.409L916.583 989.623M844.875 970.409L825.661 1042.12M916.583 989.623L988.291 1008.84M916.583 989.623L897.369 1061.33M988.291 1008.84L1060 1028.05M988.291 1008.84L969.077 1080.54M1060 1028.05L1131.71 1047.27M1060 1028.05L1040.79 1099.76M1131.71 1047.27L1203.42 1066.48M1131.71 1047.27L1112.49 1118.97M1203.42 1066.48L1275.12 1085.69M1203.42 1066.48L1184.2 1138.19M1275.12 1085.69L1346.83 1104.91M1275.12 1085.69L1255.91 1157.4M1346.83 1104.91L1418.54 1124.12M1346.83 1104.91L1327.62 1176.62M1418.54 1124.12L1490.25 1143.34M1418.54 1124.12L1399.33 1195.83M1490.25 1143.34L1561.96 1162.55M1490.25 1143.34L1471.03 1215.04M1561.96 1162.55L1633.66 1181.76M1561.96 1162.55L1542.74 1234.26M1633.66 1181.76L1705.37 1200.98M1633.66 1181.76L1614.45 1253.47M1705.37 1200.98L1777.08 1220.19M1705.37 1200.98L1686.16 1272.69M1777.08 1220.19L1848.79 1239.41M1777.08 1220.19L1757.87 1291.9M1848.79 1239.41L1920.5 1258.62M1848.79 1239.41L1829.57 1311.11M1920.5 1258.62L1901.28 1330.33M-178.252 773.119L-249.96 753.905M-178.252 773.119L-106.544 792.333M-178.252 773.119L-197.466 844.827M-249.96 753.905L-269.174 825.613M-106.544 792.333L-34.8358 811.547M-106.544 792.333L-125.758 864.041M-34.8358 811.547L36.8723 830.761M-34.8358 811.547L-54.0499 883.255M36.8723 830.761L108.58 849.975M36.8723 830.761L17.6582 902.469M108.58 849.975L180.288 869.19M108.58 849.975L89.3662 921.683M180.288 869.19L251.997 888.404M180.288 869.19L161.074 940.898M251.997 888.404L323.705 907.618M251.997 888.404L232.782 960.112M323.705 907.618L395.413 926.832M323.705 907.618L304.49 979.326M395.413 926.832L467.121 946.046M395.413 926.832L376.199 998.54M467.121 946.046L538.829 965.26M467.121 946.046L447.907 1017.75M538.829 965.26L610.537 984.474M538.829 965.26L519.615 1036.97M610.537 984.474L682.245 1003.69M610.537 984.474L591.323 1056.18M682.245 1003.69L753.953 1022.9M682.245 1003.69L663.031 1075.4M753.953 1022.9L825.661 1042.12M753.953 1022.9L734.739 1094.61M825.661 1042.12L897.369 1061.33M825.661 1042.12L806.447 1113.82M897.369 1061.33L969.077 1080.54M897.369 1061.33L878.155 1133.04M969.077 1080.54L1040.79 1099.76M969.077 1080.54L949.863 1152.25M1040.79 1099.76L1112.49 1118.97M1040.79 1099.76L1021.57 1171.47M1112.49 1118.97L1184.2 1138.19M1112.49 1118.97L1093.28 1190.68M1184.2 1138.19L1255.91 1157.4M1184.2 1138.19L1164.99 1209.9M1255.91 1157.4L1327.62 1176.62M1255.91 1157.4L1236.7 1229.11M1327.62 1176.62L1399.33 1195.83M1327.62 1176.62L1308.4 1248.32M1399.33 1195.83L1471.03 1215.04M1399.33 1195.83L1380.11 1267.54M1471.03 1215.04L1542.74 1234.26M1471.03 1215.04L1451.82 1286.75M1542.74 1234.26L1614.45 1253.47M1542.74 1234.26L1523.53 1305.97M1614.45 1253.47L1686.16 1272.69M1614.45 1253.47L1595.24 1325.18M1686.16 1272.69L1757.87 1291.9M1686.16 1272.69L1666.94 1344.39M1757.87 1291.9L1829.57 1311.11M1757.87 1291.9L1738.65 1363.61M1829.57 1311.11L1901.28 1330.33M1829.57 1311.11L1810.36 1382.82M1901.28 1330.33L1882.07 1402.04M-197.466 844.827L-269.174 825.613M-197.466 844.827L-125.758 864.041M-197.466 844.827L-216.68 916.535M-269.174 825.613L-288.388 897.321M-125.758 864.041L-54.0499 883.255M-125.758 864.041L-144.972 935.749M-54.0499 883.255L17.6582 902.469M-54.0499 883.255L-73.264 954.963M17.6582 902.469L89.3662 921.683M17.6582 902.469L-1.55597 974.177M89.3662 921.683L161.074 940.898M89.3662 921.683L70.1521 993.392M161.074 940.898L232.782 960.112M161.074 940.898L141.86 1012.61M232.782 960.112L304.49 979.326M232.782 960.112L213.568 1031.82M304.49 979.326L376.199 998.54M304.49 979.326L285.276 1051.03M376.199 998.54L447.907 1017.75M376.199 998.54L356.984 1070.25M447.907 1017.75L519.615 1036.97M447.907 1017.75L428.693 1089.46M519.615 1036.97L591.323 1056.18M519.615 1036.97L500.401 1108.68M591.323 1056.18L663.031 1075.4M591.323 1056.18L572.109 1127.89M663.031 1075.4L734.739 1094.61M663.031 1075.4L643.817 1147.1M734.739 1094.61L806.447 1113.82M734.739 1094.61L715.525 1166.32M806.447 1113.82L878.155 1133.04M806.447 1113.82L787.233 1185.53M878.155 1133.04L949.863 1152.25M878.155 1133.04L858.941 1204.75M949.863 1152.25L1021.57 1171.47M949.863 1152.25L930.649 1223.96M1021.57 1171.47L1093.28 1190.68M1021.57 1171.47L1002.36 1243.18M1093.28 1190.68L1164.99 1209.9M1093.28 1190.68L1074.07 1262.39M1164.99 1209.9L1236.7 1229.11M1164.99 1209.9L1145.77 1281.6M1236.7 1229.11L1308.4 1248.32M1236.7 1229.11L1217.48 1300.82M1308.4 1248.32L1380.11 1267.54M1308.4 1248.32L1289.19 1320.03M1380.11 1267.54L1451.82 1286.75M1380.11 1267.54L1360.9 1339.25M1451.82 1286.75L1523.53 1305.97M1451.82 1286.75L1432.61 1358.46M1523.53 1305.97L1595.24 1325.18M1523.53 1305.97L1504.31 1377.67M1595.24 1325.18L1666.94 1344.39M1595.24 1325.18L1576.02 1396.89M1666.94 1344.39L1738.65 1363.61M1666.94 1344.39L1647.73 1416.1M1738.65 1363.61L1810.36 1382.82M1738.65 1363.61L1719.44 1435.32M1810.36 1382.82L1882.07 1402.04M1810.36 1382.82L1791.15 1454.53M1882.07 1402.04L1862.85 1473.74M-216.68 916.535L-288.388 897.321M-216.68 916.535L-144.972 935.749M-216.68 916.535L-235.894 988.243M-288.388 897.321L-307.602 969.029M-144.972 935.749L-73.264 954.963M-144.972 935.749L-164.186 1007.46M-73.264 954.963L-1.55597 974.177M-73.264 954.963L-92.4782 1026.67M-1.55597 974.177L70.1521 993.392M-1.55597 974.177L-20.7701 1045.89M70.1521 993.392L141.86 1012.61M70.1521 993.392L50.938 1065.1M141.86 1012.61L213.568 1031.82M141.86 1012.61L122.646 1084.31M213.568 1031.82L285.276 1051.03M213.568 1031.82L194.354 1103.53M285.276 1051.03L356.984 1070.25M285.276 1051.03L266.062 1122.74M356.984 1070.25L428.693 1089.46M356.984 1070.25L337.77 1141.96M428.693 1089.46L500.401 1108.68M428.693 1089.46L409.478 1161.17M500.401 1108.68L572.109 1127.89M500.401 1108.68L481.186 1180.38M572.109 1127.89L643.817 1147.1M572.109 1127.89L552.895 1199.6M643.817 1147.1L715.525 1166.32M643.817 1147.1L624.603 1218.81M715.525 1166.32L787.233 1185.53M715.525 1166.32L696.311 1238.03M787.233 1185.53L858.941 1204.75M787.233 1185.53L768.019 1257.24M858.941 1204.75L930.649 1223.96M858.941 1204.75L839.727 1276.45M930.649 1223.96L1002.36 1243.18M930.649 1223.96L911.435 1295.67M1002.36 1243.18L1074.07 1262.39M1002.36 1243.18L983.143 1314.88M1074.07 1262.39L1145.77 1281.6M1074.07 1262.39L1054.85 1334.1M1145.77 1281.6L1217.48 1300.82M1145.77 1281.6L1126.56 1353.31M1217.48 1300.82L1289.19 1320.03M1217.48 1300.82L1198.27 1372.53M1289.19 1320.03L1360.9 1339.25M1289.19 1320.03L1269.98 1391.74M1360.9 1339.25L1432.61 1358.46M1360.9 1339.25L1341.68 1410.95M1432.61 1358.46L1504.31 1377.67M1432.61 1358.46L1413.39 1430.17M1504.31 1377.67L1576.02 1396.89M1504.31 1377.67L1485.1 1449.38M1576.02 1396.89L1647.73 1416.1M1576.02 1396.89L1556.81 1468.6M1647.73 1416.1L1719.44 1435.32M1647.73 1416.1L1628.52 1487.81M1719.44 1435.32L1791.15 1454.53M1719.44 1435.32L1700.22 1507.02M1791.15 1454.53L1862.85 1473.74M1791.15 1454.53L1771.93 1526.24M1862.85 1473.74L1843.64 1545.45M-235.894 988.243L-307.602 969.029M-235.894 988.243L-164.186 1007.46M-235.894 988.243L-255.108 1059.95M-307.602 969.029L-326.817 1040.74M-164.186 1007.46L-92.4782 1026.67M-164.186 1007.46L-183.4 1079.17M-92.4782 1026.67L-20.7701 1045.89M-92.4782 1026.67L-111.692 1098.38M-20.7701 1045.89L50.938 1065.1M-20.7701 1045.89L-39.9842 1117.59M50.938 1065.1L122.646 1084.31M50.938 1065.1L31.7239 1136.81M122.646 1084.31L194.354 1103.53M122.646 1084.31L103.432 1156.02M194.354 1103.53L266.062 1122.74M194.354 1103.53L175.14 1175.24M266.062 1122.74L337.77 1141.96M266.062 1122.74L246.848 1194.45M337.77 1141.96L409.478 1161.17M337.77 1141.96L318.556 1213.66M409.478 1161.17L481.186 1180.38M409.478 1161.17L390.264 1232.88M481.186 1180.38L552.895 1199.6M481.186 1180.38L461.972 1252.09M552.895 1199.6L624.603 1218.81M552.895 1199.6L533.68 1271.31M624.603 1218.81L696.311 1238.03M624.603 1218.81L605.388 1290.52M696.311 1238.03L768.019 1257.24M696.311 1238.03L677.097 1309.73M768.019 1257.24L839.727 1276.45M768.019 1257.24L748.805 1328.95M839.727 1276.45L911.435 1295.67M839.727 1276.45L820.513 1348.16M911.435 1295.67L983.143 1314.88M911.435 1295.67L892.221 1367.38M983.143 1314.88L1054.85 1334.1M983.143 1314.88L963.929 1386.59M1054.85 1334.1L1126.56 1353.31M1054.85 1334.1L1035.64 1405.81M1126.56 1353.31L1198.27 1372.53M1126.56 1353.31L1107.35 1425.02M1198.27 1372.53L1269.98 1391.74M1198.27 1372.53L1179.05 1444.23M1269.98 1391.74L1341.68 1410.95M1269.98 1391.74L1250.76 1463.45M1341.68 1410.95L1413.39 1430.17M1341.68 1410.95L1322.47 1482.66M1413.39 1430.17L1485.1 1449.38M1413.39 1430.17L1394.18 1501.88M1485.1 1449.38L1556.81 1468.6M1485.1 1449.38L1465.89 1521.09M1556.81 1468.6L1628.52 1487.81M1556.81 1468.6L1537.59 1540.3M1628.52 1487.81L1700.22 1507.02M1628.52 1487.81L1609.3 1559.52M1700.22 1507.02L1771.93 1526.24M1700.22 1507.02L1681.01 1578.73M1771.93 1526.24L1843.64 1545.45M1771.93 1526.24L1752.72 1597.95M1843.64 1545.45L1824.43 1617.16M-255.108 1059.95L-326.817 1040.74M-255.108 1059.95L-183.4 1079.17M-255.108 1059.95L-274.323 1131.66M-326.817 1040.74L-346.031 1112.45M-183.4 1079.17L-111.692 1098.38M-183.4 1079.17L-202.614 1150.87M-111.692 1098.38L-39.9842 1117.59M-111.692 1098.38L-130.906 1170.09M-39.9842 1117.59L31.7239 1136.81M-39.9842 1117.59L-59.1983 1189.3M31.7239 1136.81L103.432 1156.02M31.7239 1136.81L12.5097 1208.52M103.432 1156.02L175.14 1175.24M103.432 1156.02L84.2178 1227.73M175.14 1175.24L246.848 1194.45M175.14 1175.24L155.926 1246.94M246.848 1194.45L318.556 1213.66M246.848 1194.45L227.634 1266.16M318.556 1213.66L390.264 1232.88M318.556 1213.66L299.342 1285.37M390.264 1232.88L461.972 1252.09M390.264 1232.88L371.05 1304.59M461.972 1252.09L533.68 1271.31M461.972 1252.09L442.758 1323.8M533.68 1271.31L605.388 1290.52M533.68 1271.31L514.466 1343.01M605.388 1290.52L677.097 1309.73M605.388 1290.52L586.174 1362.23M677.097 1309.73L748.805 1328.95M677.097 1309.73L657.882 1381.44M748.805 1328.95L820.513 1348.16M748.805 1328.95L729.591 1400.66M820.513 1348.16L892.221 1367.38M820.513 1348.16L801.299 1419.87M892.221 1367.38L963.929 1386.59M892.221 1367.38L873.007 1439.09M963.929 1386.59L1035.64 1405.81M963.929 1386.59L944.715 1458.3M1035.64 1405.81L1107.35 1425.02M1035.64 1405.81L1016.42 1477.51M1107.35 1425.02L1179.05 1444.23M1107.35 1425.02L1088.13 1496.73M1179.05 1444.23L1250.76 1463.45M1179.05 1444.23L1159.84 1515.94M1250.76 1463.45L1322.47 1482.66M1250.76 1463.45L1231.55 1535.16M1322.47 1482.66L1394.18 1501.88M1322.47 1482.66L1303.26 1554.37M1394.18 1501.88L1465.89 1521.09M1394.18 1501.88L1374.96 1573.58M1465.89 1521.09L1537.59 1540.3M1465.89 1521.09L1446.67 1592.8M1537.59 1540.3L1609.3 1559.52M1537.59 1540.3L1518.38 1612.01M1609.3 1559.52L1681.01 1578.73M1609.3 1559.52L1590.09 1631.23M1681.01 1578.73L1752.72 1597.95M1681.01 1578.73L1661.8 1650.44M1752.72 1597.95L1824.43 1617.16M1752.72 1597.95L1733.5 1669.65M1824.43 1617.16L1805.21 1688.87M-274.323 1131.66L-346.031 1112.45M-274.323 1131.66L-202.614 1150.87M-274.323 1131.66L-293.537 1203.37M-346.031 1112.45L-365.245 1184.15M-202.614 1150.87L-130.906 1170.09M-202.614 1150.87L-221.829 1222.58M-130.906 1170.09L-59.1983 1189.3M-130.906 1170.09L-150.121 1241.8M-59.1983 1189.3L12.5097 1208.52M-59.1983 1189.3L-78.4125 1261.01M12.5097 1208.52L84.2178 1227.73M12.5097 1208.52L-6.70438 1280.22M84.2178 1227.73L155.926 1246.94M84.2178 1227.73L65.0037 1299.44M155.926 1246.94L227.634 1266.16M155.926 1246.94L136.712 1318.65M227.634 1266.16L299.342 1285.37M227.634 1266.16L208.42 1337.87M299.342 1285.37L371.05 1304.59M299.342 1285.37L280.128 1357.08M371.05 1304.59L442.758 1323.8M371.05 1304.59L351.836 1376.29M442.758 1323.8L514.466 1343.01M442.758 1323.8L423.544 1395.51M514.466 1343.01L586.174 1362.23M514.466 1343.01L495.252 1414.72M586.174 1362.23L657.882 1381.44M586.174 1362.23L566.96 1433.94M657.882 1381.44L729.591 1400.66M657.882 1381.44L638.668 1453.15M729.591 1400.66L801.299 1419.87M729.591 1400.66L710.376 1472.37M801.299 1419.87L873.007 1439.09M801.299 1419.87L782.084 1491.58M873.007 1439.09L944.715 1458.3M873.007 1439.09L853.793 1510.79M944.715 1458.3L1016.42 1477.51M944.715 1458.3L925.501 1530.01M1016.42 1477.51L1088.13 1496.73M1016.42 1477.51L997.209 1549.22M1088.13 1496.73L1159.84 1515.94M1088.13 1496.73L1068.92 1568.44M1159.84 1515.94L1231.55 1535.16M1159.84 1515.94L1140.62 1587.65M1231.55 1535.16L1303.26 1554.37M1231.55 1535.16L1212.33 1606.86M1303.26 1554.37L1374.96 1573.58M1303.26 1554.37L1284.04 1626.08M1374.96 1573.58L1446.67 1592.8M1374.96 1573.58L1355.75 1645.29M1446.67 1592.8L1518.38 1612.01M1446.67 1592.8L1427.46 1664.51M1518.38 1612.01L1590.09 1631.23M1518.38 1612.01L1499.17 1683.72M1590.09 1631.23L1661.8 1650.44M1590.09 1631.23L1570.87 1702.93M1661.8 1650.44L1733.5 1669.65M1661.8 1650.44L1642.58 1722.15M1733.5 1669.65L1805.21 1688.87M1733.5 1669.65L1714.29 1741.36M1805.21 1688.87L1786 1760.58M-293.537 1203.37L-365.245 1184.15M-293.537 1203.37L-221.829 1222.58M-293.537 1203.37L-312.751 1275.08M-365.245 1184.15L-384.459 1255.86M-221.829 1222.58L-150.121 1241.8M-221.829 1222.58L-241.043 1294.29M-150.121 1241.8L-78.4125 1261.01M-150.121 1241.8L-169.335 1313.5M-78.4125 1261.01L-6.70438 1280.22M-78.4125 1261.01L-97.6266 1332.72M-6.70438 1280.22L65.0037 1299.44M-6.70438 1280.22L-25.9185 1351.93M65.0037 1299.44L136.712 1318.65M65.0037 1299.44L45.7896 1371.15M136.712 1318.65L208.42 1337.87M136.712 1318.65L117.498 1390.36M208.42 1337.87L280.128 1357.08M208.42 1337.87L189.206 1409.57M280.128 1357.08L351.836 1376.29M280.128 1357.08L260.914 1428.79M351.836 1376.29L423.544 1395.51M351.836 1376.29L332.622 1448M423.544 1395.51L495.252 1414.72M423.544 1395.51L404.33 1467.22M495.252 1414.72L566.96 1433.94M495.252 1414.72L476.038 1486.43M566.96 1433.94L638.668 1453.15M566.96 1433.94L547.746 1505.64M638.668 1453.15L710.376 1472.37M638.668 1453.15L619.454 1524.86M710.376 1472.37L782.084 1491.58M710.376 1472.37L691.162 1544.07M782.084 1491.58L853.793 1510.79M782.084 1491.58L762.87 1563.29M853.793 1510.79L925.501 1530.01M853.793 1510.79L834.578 1582.5M925.501 1530.01L997.209 1549.22M925.501 1530.01L906.287 1601.72M997.209 1549.22L1068.92 1568.44M997.209 1549.22L977.995 1620.93M1068.92 1568.44L1140.62 1587.65M1068.92 1568.44L1049.7 1640.14M1140.62 1587.65L1212.33 1606.86M1140.62 1587.65L1121.41 1659.36M1212.33 1606.86L1284.04 1626.08M1212.33 1606.86L1193.12 1678.57M1284.04 1626.08L1355.75 1645.29M1284.04 1626.08L1264.83 1697.79M1355.75 1645.29L1427.46 1664.51M1355.75 1645.29L1336.53 1717M1427.46 1664.51L1499.17 1683.72M1427.46 1664.51L1408.24 1736.21M1499.17 1683.72L1570.87 1702.93M1499.17 1683.72L1479.95 1755.43M1570.87 1702.93L1642.58 1722.15M1570.87 1702.93L1551.66 1774.64M1642.58 1722.15L1714.29 1741.36M1642.58 1722.15L1623.37 1793.86M1714.29 1741.36L1786 1760.58M1714.29 1741.36L1695.08 1813.07M1786 1760.58L1766.78 1832.29M-312.751 1275.08L-384.459 1255.86M-312.751 1275.08L-241.043 1294.29M-312.751 1275.08L-331.965 1346.78M-384.459 1255.86L-403.673 1327.57L-331.965 1346.78M-241.043 1294.29L-169.335 1313.5M-241.043 1294.29L-260.257 1366M-169.335 1313.5L-97.6266 1332.72M-169.335 1313.5L-188.549 1385.21M-97.6266 1332.72L-25.9185 1351.93M-97.6266 1332.72L-116.841 1404.43M-25.9185 1351.93L45.7896 1371.15M-25.9185 1351.93L-45.1326 1423.64M45.7896 1371.15L117.498 1390.36M45.7896 1371.15L26.5755 1442.85M117.498 1390.36L189.206 1409.57M117.498 1390.36L98.2835 1462.07M189.206 1409.57L260.914 1428.79M189.206 1409.57L169.992 1481.28M260.914 1428.79L332.622 1448M260.914 1428.79L241.7 1500.5M332.622 1448L404.33 1467.22M332.622 1448L313.408 1519.71M404.33 1467.22L476.038 1486.43M404.33 1467.22L385.116 1538.92M476.038 1486.43L547.746 1505.64M476.038 1486.43L456.824 1558.14M547.746 1505.64L619.454 1524.86M547.746 1505.64L528.532 1577.35M619.454 1524.86L691.162 1544.07M619.454 1524.86L600.24 1596.57M691.162 1544.07L762.87 1563.29M691.162 1544.07L671.948 1615.78M762.87 1563.29L834.578 1582.5M762.87 1563.29L743.656 1635M834.578 1582.5L906.287 1601.72M834.578 1582.5L815.364 1654.21M906.287 1601.72L977.995 1620.93M906.287 1601.72L887.072 1673.42M977.995 1620.93L1049.7 1640.14M977.995 1620.93L958.78 1692.64M1049.7 1640.14L1121.41 1659.36M1049.7 1640.14L1030.49 1711.85M1121.41 1659.36L1193.12 1678.57M1121.41 1659.36L1102.2 1731.07M1193.12 1678.57L1264.83 1697.79M1193.12 1678.57L1173.9 1750.28M1264.83 1697.79L1336.53 1717M1264.83 1697.79L1245.61 1769.49M1336.53 1717L1408.24 1736.21M1336.53 1717L1317.32 1788.71M1408.24 1736.21L1479.95 1755.43M1408.24 1736.21L1389.03 1807.92M1479.95 1755.43L1551.66 1774.64M1479.95 1755.43L1460.74 1827.14M1551.66 1774.64L1623.37 1793.86M1551.66 1774.64L1532.45 1846.35M1623.37 1793.86L1695.08 1813.07M1623.37 1793.86L1604.15 1865.56M1695.08 1813.07L1766.78 1832.29M1695.08 1813.07L1675.86 1884.78M1766.78 1832.29L1747.57 1903.99L1675.86 1884.78M-331.965 1346.78L-260.257 1366M-260.257 1366L-188.549 1385.21M-188.549 1385.21L-116.841 1404.43M-116.841 1404.43L-45.1326 1423.64M-45.1326 1423.64L26.5755 1442.85M26.5755 1442.85L98.2835 1462.07M98.2835 1462.07L169.992 1481.28M169.992 1481.28L241.7 1500.5M241.7 1500.5L313.408 1519.71M313.408 1519.71L385.116 1538.92M385.116 1538.92L456.824 1558.14M456.824 1558.14L528.532 1577.35M528.532 1577.35L600.24 1596.57M600.24 1596.57L671.948 1615.78M671.948 1615.78L743.656 1635M743.656 1635L815.364 1654.21M815.364 1654.21L887.072 1673.42M887.072 1673.42L958.78 1692.64M958.78 1692.64L1030.49 1711.85M1030.49 1711.85L1102.2 1731.07M1102.2 1731.07L1173.9 1750.28M1173.9 1750.28L1245.61 1769.49M1245.61 1769.49L1317.32 1788.71M1317.32 1788.71L1389.03 1807.92M1389.03 1807.92L1460.74 1827.14M1460.74 1827.14L1532.45 1846.35M1532.45 1846.35L1604.15 1865.56M1604.15 1865.56L1675.86 1884.78" stroke="#E7E7E7" stroke-linecap="square"/>
<rect x="-1" width="1920" height="1080" fill="url(#paint0_radial_196_10)" fill-opacity="0.25"/>
<defs>
<radialGradient id="paint0_radial_196_10" cx="0" cy="0" r="1" gradientUnits="userSpaceOnUse" gradientTransform="translate(959 540) scale(960 820.414)">
<stop stop-color="#D2D2D2"/>
<stop offset="1" stop-color="white"/>
</radialGradient>
</defs>
</svg>
