<svg width="1920" height="1080" viewBox="0 0 1920 1080" fill="none" xmlns="http://www.w3.org/2000/svg">
<g clip-path="url(#clip0_1_2)" filter="url(#filter0_i_1_2)">
<rect width="1920" height="1080" fill="#A49393"/>
<rect width="1920" height="1080" fill="black"/>
<g clip-path="url(#clip1_1_2)">
<g clip-path="url(#clip2_1_2)">
<rect x="-40" y="-60" width="100" height="100" stroke="#292929"/>
<rect x="60" y="-60" width="100" height="100" stroke="#292929"/>
<rect x="160" y="-60" width="100" height="100" stroke="#292929"/>
<rect x="260" y="-60" width="100" height="100" stroke="#292929"/>
<rect x="360" y="-60" width="100" height="100" stroke="#292929"/>
<rect x="460" y="-60" width="100" height="100" stroke="#292929"/>
<rect x="560" y="-60" width="100" height="100" stroke="#292929"/>
<rect x="660" y="-60" width="100" height="100" stroke="#292929"/>
<rect x="760" y="-60" width="100" height="100" stroke="#292929"/>
<rect x="860" y="-60" width="100" height="100" stroke="#292929"/>
<rect x="960" y="-60" width="100" height="100" stroke="#292929"/>
<rect x="1060" y="-60" width="100" height="100" stroke="#292929"/>
<rect x="1160" y="-60" width="100" height="100" stroke="#292929"/>
<rect x="1260" y="-60" width="100" height="100" stroke="#292929"/>
<rect x="1360" y="-60" width="100" height="100" stroke="#292929"/>
<rect x="1460" y="-60" width="100" height="100" stroke="#292929"/>
<rect x="1560" y="-60" width="100" height="100" stroke="#292929"/>
<rect x="1660" y="-60" width="100" height="100" stroke="#292929"/>
<rect x="1760" y="-60" width="100" height="100" stroke="#292929"/>
<rect x="1860" y="-60" width="100" height="100" stroke="#292929"/>
</g>
<g clip-path="url(#clip3_1_2)">
<rect x="-40" y="40" width="100" height="100" stroke="#292929"/>
<rect x="60" y="40" width="100" height="100" stroke="#292929"/>
<rect x="160" y="40" width="100" height="100" stroke="#292929"/>
<rect x="260" y="40" width="100" height="100" stroke="#292929"/>
<rect x="360" y="40" width="100" height="100" stroke="#292929"/>
<rect x="460" y="40" width="100" height="100" stroke="#292929"/>
<rect x="560" y="40" width="100" height="100" stroke="#292929"/>
<rect x="660" y="40" width="100" height="100" stroke="#292929"/>
<rect x="760" y="40" width="100" height="100" stroke="#292929"/>
<rect x="860" y="40" width="100" height="100" stroke="#292929"/>
<rect x="960" y="40" width="100" height="100" stroke="#292929"/>
<rect x="1060" y="40" width="100" height="100" stroke="#292929"/>
<rect x="1160" y="40" width="100" height="100" stroke="#292929"/>
<rect x="1260" y="40" width="100" height="100" stroke="#292929"/>
<rect x="1360" y="40" width="100" height="100" stroke="#292929"/>
<rect x="1460" y="40" width="100" height="100" stroke="#292929"/>
<rect x="1560" y="40" width="100" height="100" stroke="#292929"/>
<rect x="1660" y="40" width="100" height="100" stroke="#292929"/>
<rect x="1760" y="40" width="100" height="100" stroke="#292929"/>
<rect x="1860" y="40" width="100" height="100" stroke="#292929"/>
</g>
<g clip-path="url(#clip4_1_2)">
<rect x="-40" y="140" width="100" height="100" stroke="#292929"/>
<rect x="60" y="140" width="100" height="100" stroke="#292929"/>
<rect x="160" y="140" width="100" height="100" stroke="#292929"/>
<rect x="260" y="140" width="100" height="100" stroke="#292929"/>
<rect x="360" y="140" width="100" height="100" stroke="#292929"/>
<rect x="460" y="140" width="100" height="100" stroke="#292929"/>
<rect x="560" y="140" width="100" height="100" stroke="#292929"/>
<rect x="660" y="140" width="100" height="100" stroke="#292929"/>
<rect x="760" y="140" width="100" height="100" stroke="#292929"/>
<rect x="860" y="140" width="100" height="100" stroke="#292929"/>
<rect x="960" y="140" width="100" height="100" stroke="#292929"/>
<rect x="1060" y="140" width="100" height="100" stroke="#292929"/>
<rect x="1160" y="140" width="100" height="100" stroke="#292929"/>
<rect x="1260" y="140" width="100" height="100" stroke="#292929"/>
<rect x="1360" y="140" width="100" height="100" stroke="#292929"/>
<rect x="1460" y="140" width="100" height="100" stroke="#292929"/>
<rect x="1560" y="140" width="100" height="100" stroke="#292929"/>
<rect x="1660" y="140" width="100" height="100" stroke="#292929"/>
<rect x="1760" y="140" width="100" height="100" stroke="#292929"/>
<rect x="1860" y="140" width="100" height="100" stroke="#292929"/>
</g>
<g clip-path="url(#clip5_1_2)">
<rect x="-40" y="240" width="100" height="100" stroke="#292929"/>
<rect x="60" y="240" width="100" height="100" stroke="#292929"/>
<rect x="160" y="240" width="100" height="100" stroke="#292929"/>
<rect x="260" y="240" width="100" height="100" stroke="#292929"/>
<rect x="360" y="240" width="100" height="100" stroke="#292929"/>
<rect x="460" y="240" width="100" height="100" stroke="#292929"/>
<rect x="560" y="240" width="100" height="100" stroke="#292929"/>
<rect x="660" y="240" width="100" height="100" stroke="#292929"/>
<rect x="760" y="240" width="100" height="100" stroke="#292929"/>
<rect x="860" y="240" width="100" height="100" stroke="#292929"/>
<rect x="960" y="240" width="100" height="100" stroke="#292929"/>
<rect x="1060" y="240" width="100" height="100" stroke="#292929"/>
<rect x="1160" y="240" width="100" height="100" stroke="#292929"/>
<rect x="1260" y="240" width="100" height="100" stroke="#292929"/>
<rect x="1360" y="240" width="100" height="100" stroke="#292929"/>
<rect x="1460" y="240" width="100" height="100" stroke="#292929"/>
<rect x="1560" y="240" width="100" height="100" stroke="#292929"/>
<rect x="1660" y="240" width="100" height="100" stroke="#292929"/>
<rect x="1760" y="240" width="100" height="100" stroke="#292929"/>
<rect x="1860" y="240" width="100" height="100" stroke="#292929"/>
</g>
<g clip-path="url(#clip6_1_2)">
<rect x="-40" y="340" width="100" height="100" stroke="#292929"/>
<rect x="60" y="340" width="100" height="100" stroke="#292929"/>
<rect x="160" y="340" width="100" height="100" stroke="#292929"/>
<rect x="260" y="340" width="100" height="100" stroke="#292929"/>
<rect x="360" y="340" width="100" height="100" stroke="#292929"/>
<rect x="460" y="340" width="100" height="100" stroke="#292929"/>
<rect x="560" y="340" width="100" height="100" stroke="#292929"/>
<rect x="660" y="340" width="100" height="100" stroke="#292929"/>
<rect x="760" y="340" width="100" height="100" stroke="#292929"/>
<rect x="860" y="340" width="100" height="100" stroke="#292929"/>
<rect x="960" y="340" width="100" height="100" stroke="#292929"/>
<rect x="1060" y="340" width="100" height="100" stroke="#292929"/>
<rect x="1160" y="340" width="100" height="100" stroke="#292929"/>
<rect x="1260" y="340" width="100" height="100" stroke="#292929"/>
<rect x="1360" y="340" width="100" height="100" stroke="#292929"/>
<rect x="1460" y="340" width="100" height="100" stroke="#292929"/>
<rect x="1560" y="340" width="100" height="100" stroke="#292929"/>
<rect x="1660" y="340" width="100" height="100" stroke="#292929"/>
<rect x="1760" y="340" width="100" height="100" stroke="#292929"/>
<rect x="1860" y="340" width="100" height="100" stroke="#292929"/>
</g>
<g clip-path="url(#clip7_1_2)">
<rect x="-40" y="440" width="100" height="100" stroke="#292929"/>
<rect x="60" y="440" width="100" height="100" stroke="#292929"/>
<rect x="160" y="440" width="100" height="100" stroke="#292929"/>
<rect x="260" y="440" width="100" height="100" stroke="#292929"/>
<rect x="360" y="440" width="100" height="100" stroke="#292929"/>
<rect x="460" y="440" width="100" height="100" stroke="#292929"/>
<rect x="560" y="440" width="100" height="100" stroke="#292929"/>
<rect x="660" y="440" width="100" height="100" stroke="#292929"/>
<rect x="760" y="440" width="100" height="100" stroke="#292929"/>
<rect x="860" y="440" width="100" height="100" stroke="#292929"/>
<rect x="960" y="440" width="100" height="100" stroke="#292929"/>
<rect x="1060" y="440" width="100" height="100" stroke="#292929"/>
<rect x="1160" y="440" width="100" height="100" stroke="#292929"/>
<rect x="1260" y="440" width="100" height="100" stroke="#292929"/>
<rect x="1360" y="440" width="100" height="100" stroke="#292929"/>
<rect x="1460" y="440" width="100" height="100" stroke="#292929"/>
<rect x="1560" y="440" width="100" height="100" stroke="#292929"/>
<rect x="1660" y="440" width="100" height="100" stroke="#292929"/>
<rect x="1760" y="440" width="100" height="100" stroke="#292929"/>
<rect x="1860" y="440" width="100" height="100" stroke="#292929"/>
</g>
<g clip-path="url(#clip8_1_2)">
<rect x="-40" y="540" width="100" height="100" stroke="#292929"/>
<rect x="60" y="540" width="100" height="100" stroke="#292929"/>
<rect x="160" y="540" width="100" height="100" stroke="#292929"/>
<rect x="260" y="540" width="100" height="100" stroke="#292929"/>
<rect x="360" y="540" width="100" height="100" stroke="#292929"/>
<rect x="460" y="540" width="100" height="100" stroke="#292929"/>
<rect x="560" y="540" width="100" height="100" stroke="#292929"/>
<rect x="660" y="540" width="100" height="100" stroke="#292929"/>
<rect x="760" y="540" width="100" height="100" stroke="#292929"/>
<rect x="860" y="540" width="100" height="100" stroke="#292929"/>
<rect x="960" y="540" width="100" height="100" stroke="#292929"/>
<rect x="1060" y="540" width="100" height="100" stroke="#292929"/>
<rect x="1160" y="540" width="100" height="100" stroke="#292929"/>
<rect x="1260" y="540" width="100" height="100" stroke="#292929"/>
<rect x="1360" y="540" width="100" height="100" stroke="#292929"/>
<rect x="1460" y="540" width="100" height="100" stroke="#292929"/>
<rect x="1560" y="540" width="100" height="100" stroke="#292929"/>
<rect x="1660" y="540" width="100" height="100" stroke="#292929"/>
<rect x="1760" y="540" width="100" height="100" stroke="#292929"/>
<rect x="1860" y="540" width="100" height="100" stroke="#292929"/>
</g>
<g clip-path="url(#clip9_1_2)">
<rect x="-40" y="640" width="100" height="100" stroke="#292929"/>
<rect x="60" y="640" width="100" height="100" stroke="#292929"/>
<rect x="160" y="640" width="100" height="100" stroke="#292929"/>
<rect x="260" y="640" width="100" height="100" stroke="#292929"/>
<rect x="360" y="640" width="100" height="100" stroke="#292929"/>
<rect x="460" y="640" width="100" height="100" stroke="#292929"/>
<rect x="560" y="640" width="100" height="100" stroke="#292929"/>
<rect x="660" y="640" width="100" height="100" stroke="#292929"/>
<rect x="760" y="640" width="100" height="100" stroke="#292929"/>
<rect x="860" y="640" width="100" height="100" stroke="#292929"/>
<rect x="960" y="640" width="100" height="100" stroke="#292929"/>
<rect x="1060" y="640" width="100" height="100" stroke="#292929"/>
<rect x="1160" y="640" width="100" height="100" stroke="#292929"/>
<rect x="1260" y="640" width="100" height="100" stroke="#292929"/>
<rect x="1360" y="640" width="100" height="100" stroke="#292929"/>
<rect x="1460" y="640" width="100" height="100" stroke="#292929"/>
<rect x="1560" y="640" width="100" height="100" stroke="#292929"/>
<rect x="1660" y="640" width="100" height="100" stroke="#292929"/>
<rect x="1760" y="640" width="100" height="100" stroke="#292929"/>
<rect x="1860" y="640" width="100" height="100" stroke="#292929"/>
</g>
<g clip-path="url(#clip10_1_2)">
<rect x="-40" y="740" width="100" height="100" stroke="#292929"/>
<rect x="60" y="740" width="100" height="100" stroke="#292929"/>
<rect x="160" y="740" width="100" height="100" stroke="#292929"/>
<rect x="260" y="740" width="100" height="100" stroke="#292929"/>
<rect x="360" y="740" width="100" height="100" stroke="#292929"/>
<rect x="460" y="740" width="100" height="100" stroke="#292929"/>
<rect x="560" y="740" width="100" height="100" stroke="#292929"/>
<rect x="660" y="740" width="100" height="100" stroke="#292929"/>
<rect x="760" y="740" width="100" height="100" stroke="#292929"/>
<rect x="860" y="740" width="100" height="100" stroke="#292929"/>
<rect x="960" y="740" width="100" height="100" stroke="#292929"/>
<rect x="1060" y="740" width="100" height="100" stroke="#292929"/>
<rect x="1160" y="740" width="100" height="100" stroke="#292929"/>
<rect x="1260" y="740" width="100" height="100" stroke="#292929"/>
<rect x="1360" y="740" width="100" height="100" stroke="#292929"/>
<rect x="1460" y="740" width="100" height="100" stroke="#292929"/>
<rect x="1560" y="740" width="100" height="100" stroke="#292929"/>
<rect x="1660" y="740" width="100" height="100" stroke="#292929"/>
<rect x="1760" y="740" width="100" height="100" stroke="#292929"/>
<rect x="1860" y="740" width="100" height="100" stroke="#292929"/>
</g>
<g clip-path="url(#clip11_1_2)">
<rect x="-40" y="840" width="100" height="100" stroke="#292929"/>
<rect x="60" y="840" width="100" height="100" stroke="#292929"/>
<rect x="160" y="840" width="100" height="100" stroke="#292929"/>
<rect x="260" y="840" width="100" height="100" stroke="#292929"/>
<rect x="360" y="840" width="100" height="100" stroke="#292929"/>
<rect x="460" y="840" width="100" height="100" stroke="#292929"/>
<rect x="560" y="840" width="100" height="100" stroke="#292929"/>
<rect x="660" y="840" width="100" height="100" stroke="#292929"/>
<rect x="760" y="840" width="100" height="100" stroke="#292929"/>
<rect x="860" y="840" width="100" height="100" stroke="#292929"/>
<rect x="960" y="840" width="100" height="100" stroke="#292929"/>
<rect x="1060" y="840" width="100" height="100" stroke="#292929"/>
<rect x="1160" y="840" width="100" height="100" stroke="#292929"/>
<rect x="1260" y="840" width="100" height="100" stroke="#292929"/>
<rect x="1360" y="840" width="100" height="100" stroke="#292929"/>
<rect x="1460" y="840" width="100" height="100" stroke="#292929"/>
<rect x="1560" y="840" width="100" height="100" stroke="#292929"/>
<rect x="1660" y="840" width="100" height="100" stroke="#292929"/>
<rect x="1760" y="840" width="100" height="100" stroke="#292929"/>
<rect x="1860" y="840" width="100" height="100" stroke="#292929"/>
</g>
<g clip-path="url(#clip12_1_2)">
<rect x="-40" y="940" width="100" height="100" stroke="#292929"/>
<rect x="60" y="940" width="100" height="100" stroke="#292929"/>
<rect x="160" y="940" width="100" height="100" stroke="#292929"/>
<rect x="260" y="940" width="100" height="100" stroke="#292929"/>
<rect x="360" y="940" width="100" height="100" stroke="#292929"/>
<rect x="460" y="940" width="100" height="100" stroke="#292929"/>
<rect x="560" y="940" width="100" height="100" stroke="#292929"/>
<rect x="660" y="940" width="100" height="100" stroke="#292929"/>
<rect x="760" y="940" width="100" height="100" stroke="#292929"/>
<rect x="860" y="940" width="100" height="100" stroke="#292929"/>
<rect x="960" y="940" width="100" height="100" stroke="#292929"/>
<rect x="1060" y="940" width="100" height="100" stroke="#292929"/>
<rect x="1160" y="940" width="100" height="100" stroke="#292929"/>
<rect x="1260" y="940" width="100" height="100" stroke="#292929"/>
<rect x="1360" y="940" width="100" height="100" stroke="#292929"/>
<rect x="1460" y="940" width="100" height="100" stroke="#292929"/>
<rect x="1560" y="940" width="100" height="100" stroke="#292929"/>
<rect x="1660" y="940" width="100" height="100" stroke="#292929"/>
<rect x="1760" y="940" width="100" height="100" stroke="#292929"/>
<rect x="1860" y="940" width="100" height="100" stroke="#292929"/>
</g>
<g clip-path="url(#clip13_1_2)">
<rect x="-40" y="1040" width="100" height="100" stroke="#292929"/>
<rect x="60" y="1040" width="100" height="100" stroke="#292929"/>
<rect x="160" y="1040" width="100" height="100" stroke="#292929"/>
<rect x="260" y="1040" width="100" height="100" stroke="#292929"/>
<rect x="360" y="1040" width="100" height="100" stroke="#292929"/>
<rect x="460" y="1040" width="100" height="100" stroke="#292929"/>
<rect x="560" y="1040" width="100" height="100" stroke="#292929"/>
<rect x="660" y="1040" width="100" height="100" stroke="#292929"/>
<rect x="760" y="1040" width="100" height="100" stroke="#292929"/>
<rect x="860" y="1040" width="100" height="100" stroke="#292929"/>
<rect x="960" y="1040" width="100" height="100" stroke="#292929"/>
<rect x="1060" y="1040" width="100" height="100" stroke="#292929"/>
<rect x="1160" y="1040" width="100" height="100" stroke="#292929"/>
<rect x="1260" y="1040" width="100" height="100" stroke="#292929"/>
<rect x="1360" y="1040" width="100" height="100" stroke="#292929"/>
<rect x="1460" y="1040" width="100" height="100" stroke="#292929"/>
<rect x="1560" y="1040" width="100" height="100" stroke="#292929"/>
<rect x="1660" y="1040" width="100" height="100" stroke="#292929"/>
<rect x="1760" y="1040" width="100" height="100" stroke="#292929"/>
<rect x="1860" y="1040" width="100" height="100" stroke="#292929"/>
</g>
</g>
</g>
<defs>
<filter id="filter0_i_1_2" x="0" y="0" width="1920" height="1080" filterUnits="userSpaceOnUse" color-interpolation-filters="sRGB">
<feFlood flood-opacity="0" result="BackgroundImageFix"/>
<feBlend mode="normal" in="SourceGraphic" in2="BackgroundImageFix" result="shape"/>
<feColorMatrix in="SourceAlpha" type="matrix" values="0 0 0 0 0 0 0 0 0 0 0 0 0 0 0 0 0 0 127 0" result="hardAlpha"/>
<feMorphology radius="167" operator="erode" in="SourceAlpha" result="effect1_innerShadow_1_2"/>
<feOffset/>
<feGaussianBlur stdDeviation="125"/>
<feComposite in2="hardAlpha" operator="arithmetic" k2="-1" k3="1"/>
<feColorMatrix type="matrix" values="0 0 0 0 0 0 0 0 0 0 0 0 0 0 0 0 0 0 1 0"/>
<feBlend mode="normal" in2="shape" result="effect1_innerShadow_1_2"/>
</filter>
<clipPath id="clip0_1_2">
<rect width="1920" height="1080" fill="white"/>
</clipPath>
<clipPath id="clip1_1_2">
<rect width="3000" height="3000" fill="white" transform="translate(-540 -960)"/>
</clipPath>
<clipPath id="clip2_1_2">
<rect width="3000" height="100" fill="white" transform="translate(-540 -60)"/>
</clipPath>
<clipPath id="clip3_1_2">
<rect width="3000" height="100" fill="white" transform="translate(-540 40)"/>
</clipPath>
<clipPath id="clip4_1_2">
<rect width="3000" height="100" fill="white" transform="translate(-540 140)"/>
</clipPath>
<clipPath id="clip5_1_2">
<rect width="3000" height="100" fill="white" transform="translate(-540 240)"/>
</clipPath>
<clipPath id="clip6_1_2">
<rect width="3000" height="100" fill="white" transform="translate(-540 340)"/>
</clipPath>
<clipPath id="clip7_1_2">
<rect width="3000" height="100" fill="white" transform="translate(-540 440)"/>
</clipPath>
<clipPath id="clip8_1_2">
<rect width="3000" height="100" fill="white" transform="translate(-540 540)"/>
</clipPath>
<clipPath id="clip9_1_2">
<rect width="3000" height="100" fill="white" transform="translate(-540 640)"/>
</clipPath>
<clipPath id="clip10_1_2">
<rect width="3000" height="100" fill="white" transform="translate(-540 740)"/>
</clipPath>
<clipPath id="clip11_1_2">
<rect width="3000" height="100" fill="white" transform="translate(-540 840)"/>
</clipPath>
<clipPath id="clip12_1_2">
<rect width="3000" height="100" fill="white" transform="translate(-540 940)"/>
</clipPath>
<clipPath id="clip13_1_2">
<rect width="3000" height="100" fill="white" transform="translate(-540 1040)"/>
</clipPath>
</defs>
</svg>
